%TF.GenerationSoftware,KiCad,Pcbnew,10.0.2*%
%TF.CreationDate,2026-06-16T12:13:30+02:00*%
%TF.ProjectId,s3-salle-de-bain,73332d73-616c-46c6-952d-64652d626169,rev?*%
%TF.SameCoordinates,Original*%
%TF.FileFunction,Copper,L2,Bot*%
%TF.FilePolarity,Positive*%
%FSLAX46Y46*%
G04 Gerber Fmt 4.6, Leading zero omitted, Abs format (unit mm)*
G04 Created by KiCad (PCBNEW 10.0.2) date 2026-06-16 12:13:30*
%MOMM*%
%LPD*%
G01*
G04 APERTURE LIST*
G04 Aperture macros list*
%AMRoundRect*
0 Rectangle with rounded corners*
0 $1 Rounding radius*
0 $2 $3 $4 $5 $6 $7 $8 $9 X,Y pos of 4 corners*
0 Add a 4 corners polygon primitive as box body*
4,1,4,$2,$3,$4,$5,$6,$7,$8,$9,$2,$3,0*
0 Add four circle primitives for the rounded corners*
1,1,$1+$1,$2,$3*
1,1,$1+$1,$4,$5*
1,1,$1+$1,$6,$7*
1,1,$1+$1,$8,$9*
0 Add four rect primitives between the rounded corners*
20,1,$1+$1,$2,$3,$4,$5,0*
20,1,$1+$1,$4,$5,$6,$7,0*
20,1,$1+$1,$6,$7,$8,$9,0*
20,1,$1+$1,$8,$9,$2,$3,0*%
G04 Aperture macros list end*
%TA.AperFunction,ComponentPad*%
%ADD10R,1.200000X2.000000*%
%TD*%
%TA.AperFunction,ComponentPad*%
%ADD11O,1.200000X2.000000*%
%TD*%
%TA.AperFunction,ComponentPad*%
%ADD12O,1.400000X0.800000*%
%TD*%
%TA.AperFunction,ComponentPad*%
%ADD13RoundRect,0.250000X-0.550000X-0.550000X0.550000X-0.550000X0.550000X0.550000X-0.550000X0.550000X0*%
%TD*%
%TA.AperFunction,ComponentPad*%
%ADD14C,1.600000*%
%TD*%
%TA.AperFunction,ComponentPad*%
%ADD15R,1.700000X1.700000*%
%TD*%
%TA.AperFunction,ComponentPad*%
%ADD16C,1.700000*%
%TD*%
%TA.AperFunction,ComponentPad*%
%ADD17R,2.000000X2.000000*%
%TD*%
%TA.AperFunction,ComponentPad*%
%ADD18C,2.000000*%
%TD*%
%TA.AperFunction,ComponentPad*%
%ADD19R,3.200000X2.000000*%
%TD*%
%TA.AperFunction,ComponentPad*%
%ADD20R,1.600000X1.600000*%
%TD*%
%TA.AperFunction,ComponentPad*%
%ADD21O,2.000000X1.400000*%
%TD*%
%TA.AperFunction,ComponentPad*%
%ADD22R,2.000000X1.400000*%
%TD*%
%TA.AperFunction,ViaPad*%
%ADD23C,0.600000*%
%TD*%
%TA.AperFunction,Conductor*%
%ADD24C,0.200000*%
%TD*%
%ADD25C,0.300000*%
%ADD26C,0.350000*%
%ADD27O,0.649999X0.949999*%
%ADD28O,1.100000X0.500000*%
%ADD29O,2.800000X1.500000*%
%ADD30O,1.200000X0.600000*%
G04 APERTURE END LIST*
D10*
%TO.P,U1,1*%
%TO.N,+3V3*%
X67480000Y-100360000D03*
D11*
%TO.P,U1,2*%
%TO.N,N/C*%
X70020000Y-100360000D03*
%TO.P,U1,3*%
X72560000Y-100360000D03*
%TO.P,U1,4*%
%TO.N,MIC_LRCLK*%
X75100000Y-100360000D03*
%TO.P,U1,5*%
%TO.N,MIC_BCLK*%
X77640000Y-100360000D03*
%TO.P,U1,6*%
%TO.N,N/C*%
X80180000Y-100360000D03*
%TO.P,U1,7*%
%TO.N,DAC_LRCK*%
X82720000Y-100360000D03*
%TO.P,U1,8*%
%TO.N,N/C*%
X85260000Y-100360000D03*
%TO.P,U1,9*%
%TO.N,ENC_A*%
X87800000Y-100360000D03*
%TO.P,U1,10*%
%TO.N,JACK_DET*%
X90340000Y-100360000D03*
%TO.P,U1,11*%
%TO.N,ENC_B*%
X92880000Y-100360000D03*
%TO.P,U1,12*%
%TO.N,DAC_BCK*%
X95420000Y-100360000D03*
%TO.P,U1,13*%
%TO.N,N/C*%
X97960000Y-100360000D03*
%TO.P,U1,14*%
X100500000Y-100360000D03*
%TO.P,U1,15*%
%TO.N,LED_PWR_EN*%
X103040000Y-100360000D03*
%TO.P,U1,16*%
%TO.N,DAC_DIN*%
X105580000Y-100360000D03*
%TO.P,U1,17*%
%TO.N,MIC_DIN*%
X108120000Y-100360000D03*
%TO.P,U1,18*%
%TO.N,N/C*%
X110660000Y-100360000D03*
%TO.P,U1,19*%
X113200000Y-100360000D03*
%TO.P,U1,20*%
X115737280Y-100363680D03*
%TO.P,U1,21*%
%TO.N,+5V*%
X118277280Y-100363680D03*
%TO.P,U1,22*%
%TO.N,GND*%
X120817280Y-100363680D03*
%TO.P,U1,23*%
%TO.N,N/C*%
X120820000Y-77500000D03*
%TO.P,U1,24*%
X118280000Y-77500000D03*
%TO.P,U1,25*%
X115740000Y-77500000D03*
%TO.P,U1,26*%
X113200000Y-77500000D03*
%TO.P,U1,27*%
%TO.N,LED_DIN_RAW*%
X110660000Y-77500000D03*
%TO.P,U1,28*%
%TO.N,AMP_EN*%
X108120000Y-77500000D03*
%TO.P,U1,29*%
%TO.N,N/C*%
X105580000Y-77500000D03*
%TO.P,U1,30*%
X103040000Y-77500000D03*
%TO.P,U1,31*%
X100500000Y-77500000D03*
%TO.P,U1,32*%
X97960000Y-77500000D03*
%TO.P,U1,33*%
X95420000Y-77500000D03*
%TO.P,U1,34*%
X92880000Y-77500000D03*
%TO.P,U1,35*%
X90340000Y-77500000D03*
%TO.P,U1,36*%
X87800000Y-77500000D03*
%TO.P,U1,37*%
X85260000Y-77500000D03*
%TO.P,U1,38*%
X82720000Y-77500000D03*
%TO.P,U1,39*%
X80180000Y-77500000D03*
%TO.P,U1,40*%
%TO.N,MUTE_SW*%
X77640000Y-77500000D03*
%TO.P,U1,41*%
%TO.N,BTN_CENTER*%
X75100000Y-77500000D03*
%TO.P,U1,42*%
%TO.N,N/C*%
X72560000Y-77500000D03*
%TO.P,U1,43*%
X70020000Y-77500000D03*
%TO.P,U1,44*%
%TO.N,GND*%
X67480000Y-77500000D03*
%TD*%
D12*
%TO.P,J2,SH*%
%TO.N,GND*%
X69350000Y-119320000D03*
X75300000Y-119680000D03*
X75300000Y-127940000D03*
X69350000Y-128300000D03*
%TD*%
D13*
%TO.P,SW2,1*%
%TO.N,MUTE_SW*%
X107270000Y-135610000D03*
D14*
%TO.P,SW2,2*%
%TO.N,GND*%
X114890000Y-135610000D03*
%TD*%
D15*
%TO.P,HP1,1*%
%TO.N,SPK_L+*%
X80540000Y-134030000D03*
D16*
%TO.P,HP1,2*%
%TO.N,SPK_L-*%
X80540000Y-131490000D03*
%TD*%
D17*
%TO.P,SW1,A*%
%TO.N,ENC_A*%
X118370000Y-121900000D03*
D18*
%TO.P,SW1,B*%
%TO.N,ENC_B*%
X118370000Y-126900000D03*
%TO.P,SW1,C*%
%TO.N,GND*%
X118370000Y-124400000D03*
D19*
%TO.P,SW1,MP*%
X125870000Y-118800000D03*
X125870000Y-130000000D03*
D18*
%TO.P,SW1,S1*%
%TO.N,BTN_CENTER*%
X132870000Y-126900000D03*
%TO.P,SW1,S2*%
%TO.N,GND*%
X132870000Y-121900000D03*
%TD*%
D20*
%TO.P,U4,1*%
%TO.N,GND*%
X122080000Y-53000000D03*
D14*
%TO.P,U4,2*%
%TO.N,MIC_LRCLK*%
X124620000Y-53000000D03*
%TO.P,U4,3*%
%TO.N,MIC_BCLK*%
X127160000Y-53000000D03*
%TO.P,U4,4*%
%TO.N,MIC_DIN*%
X122080000Y-65700000D03*
%TO.P,U4,5*%
%TO.N,+3V3*%
X124620000Y-65700000D03*
%TO.P,U4,6*%
%TO.N,GND*%
X127160000Y-65700000D03*
%TD*%
D21*
%TO.P,J1,*%
%TO.N,*%
X72060000Y-107352500D03*
%TO.P,J1,R1*%
%TO.N,AUDIO_R*%
X75060000Y-112852500D03*
%TO.P,J1,R2*%
%TO.N,JACK_DET*%
X72060000Y-112852500D03*
%TO.P,J1,S*%
%TO.N,GND*%
X80560000Y-108352500D03*
D22*
%TO.P,J1,T*%
%TO.N,AUDIO_L*%
X79060000Y-112852500D03*
%TD*%
D14*
%TO.P,U3,GI*%
%TO.N,GND*%
X88570000Y-128550000D03*
%TO.P,U3,L+*%
%TO.N,SPK_L+*%
X88570000Y-116550000D03*
D20*
%TO.P,U3,L-*%
%TO.N,SPK_L-*%
X86030000Y-116550000D03*
D14*
%TO.P,U3,LI*%
%TO.N,AUDIO_L*%
X86030000Y-128550000D03*
%TO.P,U3,R+*%
%TO.N,SPK_R+*%
X103810000Y-116550000D03*
%TO.P,U3,R-*%
%TO.N,SPK_R-*%
X101270000Y-116550000D03*
%TO.P,U3,RI*%
%TO.N,AUDIO_R*%
X91110000Y-128550000D03*
%TO.P,U3,V+*%
%TO.N,+5V_AMP*%
X101270000Y-128550000D03*
%TO.P,U3,V-*%
%TO.N,GND*%
X103810000Y-128550000D03*
%TD*%
D15*
%TO.P,U2,1*%
%TO.N,+3V3*%
X79720000Y-50980000D03*
D16*
%TO.P,U2,2*%
%TO.N,GND*%
X82260000Y-50980000D03*
%TO.P,U2,3*%
%TO.N,DAC_LRCK*%
X84800000Y-50980000D03*
%TO.P,U2,4*%
%TO.N,DAC_DIN*%
X87340000Y-50980000D03*
%TO.P,U2,5*%
%TO.N,DAC_BCK*%
X89880000Y-50980000D03*
%TO.P,U2,6*%
%TO.N,GND*%
X92420000Y-50980000D03*
%TO.P,U2,7*%
X94960000Y-50980000D03*
%TO.P,U2,8*%
X97500000Y-50980000D03*
%TO.P,U2,9*%
X100040000Y-50980000D03*
%TO.P,U2,10*%
%TO.N,+3V3*%
X102580000Y-50980000D03*
%TO.P,U2,11*%
X105120000Y-50980000D03*
%TO.P,U2,G*%
%TO.N,GND*%
X89880000Y-71300000D03*
%TO.P,U2,L*%
%TO.N,AUDIO_L*%
X87340000Y-71300000D03*
%TO.P,U2,R*%
%TO.N,AUDIO_R*%
X92420000Y-71300000D03*
%TD*%
D15*
%TO.P,HP2,1*%
%TO.N,SPK_R+*%
X111080000Y-122550000D03*
D16*
%TO.P,HP2,2*%
%TO.N,SPK_R-*%
X111080000Y-125090000D03*
%TD*%
D15*
%TO.P,DS1,1*%
%TO.N,+5V_LED*%
X135060000Y-106700000D03*
D16*
%TO.P,DS1,2*%
%TO.N,GND*%
X135060000Y-109240000D03*
%TO.P,DS1,3*%
%TO.N,LED_DIN*%
X135060000Y-111780000D03*
%TD*%
D23*
%TO.N,LED_DIN*%
X113580000Y-109940300D03*
%TO.N,AUDIO_L*%
X89231600Y-118006600D03*
%TO.N,LED_PWR_EN*%
X114420000Y-111883000D03*
%TO.N,BTN_CENTER*%
X105995200Y-69603100D03*
X109964200Y-109781900D03*
%TO.N,MUTE_SW*%
X74880900Y-128845200D03*
%TO.N,+5V*%
X102285400Y-102505800D03*
%TD*%
%TO.N,GND*%
D24*
X76050000Y-128690000D02*
X75300000Y-127940000D01*
X78982100Y-127437900D02*
X77730000Y-128690000D01*
X77730000Y-128690000D02*
X76050000Y-128690000D01*
X87457900Y-127437900D02*
X78982100Y-127437900D01*
X88570000Y-128550000D02*
X87457900Y-127437900D01*
%TO.N,SPK_R-*%
X109810000Y-125090000D02*
X101270000Y-116550000D01*
X111080000Y-125090000D02*
X109810000Y-125090000D01*
%TO.N,SPK_R+*%
X109810000Y-122550000D02*
X103810000Y-116550000D01*
X111080000Y-122550000D02*
X109810000Y-122550000D01*
%TO.N,LED_DIN*%
X115419700Y-111780000D02*
X113580000Y-109940300D01*
X135060000Y-111780000D02*
X115419700Y-111780000D01*
%TO.N,AUDIO_L*%
X83212400Y-118006600D02*
X89231600Y-118006600D01*
X79060000Y-113854200D02*
X83212400Y-118006600D01*
X79060000Y-112852500D02*
X79060000Y-113854200D01*
%TO.N,AUDIO_R*%
X76361700Y-113801700D02*
X76361700Y-112852500D01*
X91110000Y-128550000D02*
X76361700Y-113801700D01*
X75060000Y-112852500D02*
X76361700Y-112852500D01*
%TO.N,LED_PWR_EN*%
X106738900Y-104201900D02*
X114420000Y-111883000D01*
X103104100Y-104201900D02*
X106738900Y-104201900D01*
X101660600Y-102758400D02*
X103104100Y-104201900D01*
X101660600Y-101739400D02*
X101660600Y-102758400D01*
X103040000Y-100360000D02*
X101660600Y-101739400D01*
%TO.N,JACK_DET*%
X84475300Y-101661700D02*
X90340000Y-101661700D01*
X73361700Y-112775300D02*
X84475300Y-101661700D01*
X73361700Y-112852500D02*
X73361700Y-112775300D01*
X72060000Y-112852500D02*
X73361700Y-112852500D01*
X90340000Y-100360000D02*
X90340000Y-101661700D01*
%TO.N,MIC_DIN*%
X122080000Y-85098300D02*
X122080000Y-65700000D01*
X108120000Y-99058300D02*
X122080000Y-85098300D01*
X108120000Y-100360000D02*
X108120000Y-99058300D01*
%TO.N,MIC_BCLK*%
X106850000Y-73310000D02*
X127160000Y-53000000D01*
X106850000Y-77911500D02*
X106850000Y-73310000D01*
X85703200Y-99058300D02*
X106850000Y-77911500D01*
X77640000Y-99058300D02*
X85703200Y-99058300D01*
X77640000Y-100360000D02*
X77640000Y-99058300D01*
%TO.N,MIC_LRCLK*%
X75100000Y-100360000D02*
X75100000Y-99058300D01*
X107415200Y-70204800D02*
X124620000Y-53000000D01*
X106081200Y-70204800D02*
X107415200Y-70204800D01*
X99230000Y-77056000D02*
X106081200Y-70204800D01*
X99230000Y-77956000D02*
X99230000Y-77056000D01*
X93655100Y-83530900D02*
X99230000Y-77956000D01*
X90627400Y-83530900D02*
X93655100Y-83530900D01*
X75100000Y-99058300D02*
X90627400Y-83530900D01*
%TO.N,BTN_CENTER*%
X99400000Y-76198300D02*
X75100000Y-76198300D01*
X105995200Y-69603100D02*
X99400000Y-76198300D01*
X75100000Y-77500000D02*
X75100000Y-76198300D01*
X127082300Y-126900000D02*
X109964200Y-109781900D01*
X132870000Y-126900000D02*
X127082300Y-126900000D01*
%TO.N,ENC_B*%
X92880000Y-100360000D02*
X92880000Y-101661700D01*
X119748400Y-125521600D02*
X118370000Y-126900000D01*
X119748400Y-120846300D02*
X119748400Y-125521600D01*
X106232200Y-107330100D02*
X119748400Y-120846300D01*
X98548400Y-107330100D02*
X106232200Y-107330100D01*
X92880000Y-101661700D02*
X98548400Y-107330100D01*
%TO.N,ENC_A*%
X115766600Y-120598300D02*
X117068300Y-121900000D01*
X111205600Y-120598300D02*
X115766600Y-120598300D01*
X91868700Y-101261400D02*
X111205600Y-120598300D01*
X91868700Y-100186600D02*
X91868700Y-101261400D01*
X90740400Y-99058300D02*
X91868700Y-100186600D01*
X87800000Y-99058300D02*
X90740400Y-99058300D01*
X87800000Y-100360000D02*
X87800000Y-99058300D01*
X118370000Y-121900000D02*
X117068300Y-121900000D01*
%TO.N,MUTE_SW*%
X76150000Y-130114300D02*
X74880900Y-128845200D01*
X101774300Y-130114300D02*
X76150000Y-130114300D01*
X107270000Y-135610000D02*
X101774300Y-130114300D01*
%TO.N,+5V*%
X103125800Y-101665400D02*
X102285400Y-102505800D01*
X118277300Y-101665400D02*
X103125800Y-101665400D01*
X118277300Y-100363700D02*
X118277300Y-101665400D01*
%TO.N,GND*%
X100040000Y-50980000D02*
X97500000Y-50980000D01*
X97500000Y-50980000D02*
X94960000Y-50980000D01*
X94960000Y-50980000D02*
X92420000Y-50980000D01*
X83411700Y-49828300D02*
X82260000Y-50980000D01*
X91268300Y-49828300D02*
X83411700Y-49828300D01*
X92420000Y-50980000D02*
X91268300Y-49828300D01*
X102060000Y-53000000D02*
X122080000Y-53000000D01*
X100040000Y-50980000D02*
X102060000Y-53000000D01*
X67480000Y-77500000D02*
X67480000Y-76198300D01*
X127485400Y-101665400D02*
X135060000Y-109240000D01*
X120817300Y-101665400D02*
X127485400Y-101665400D01*
X120817300Y-100363700D02*
X120817300Y-101665400D01*
X130871700Y-121900000D02*
X127771700Y-118800000D01*
X132870000Y-121900000D02*
X130871700Y-121900000D01*
X125870000Y-118800000D02*
X127771700Y-118800000D01*
X125870000Y-130000000D02*
X123968300Y-130000000D01*
X115702200Y-135610000D02*
X114890000Y-135610000D01*
X115702200Y-132660300D02*
X115702200Y-135610000D01*
X121308000Y-132660300D02*
X123968300Y-130000000D01*
X115702200Y-132660300D02*
X121308000Y-132660300D01*
X114220000Y-131178100D02*
X115702200Y-132660300D01*
X114220000Y-128550000D02*
X114220000Y-131178100D01*
X103810000Y-128550000D02*
X114220000Y-128550000D01*
X114220000Y-128550000D02*
X118370000Y-124400000D01*
X73938300Y-128300000D02*
X74298300Y-127940000D01*
X69350000Y-128300000D02*
X73938300Y-128300000D01*
X75300000Y-127940000D02*
X74298300Y-127940000D01*
X73938300Y-119320000D02*
X74298300Y-119680000D01*
X69350000Y-119320000D02*
X73938300Y-119320000D01*
X75300000Y-119680000D02*
X74298300Y-119680000D01*
X70483100Y-73195200D02*
X67480000Y-76198300D01*
X87984800Y-73195200D02*
X70483100Y-73195200D01*
X89880000Y-71300000D02*
X87984800Y-73195200D01*
X89732600Y-129712600D02*
X88570000Y-128550000D01*
X102647400Y-129712600D02*
X89732600Y-129712600D01*
X103810000Y-128550000D02*
X102647400Y-129712600D01*
%TO.N,+3V3*%
X105120000Y-50980000D02*
X102580000Y-50980000D01*
X79720000Y-50980000D02*
X80871700Y-50980000D01*
X80871700Y-50692000D02*
X80871700Y-50980000D01*
X82137100Y-49426600D02*
X80871700Y-50692000D01*
X101026600Y-49426600D02*
X82137100Y-49426600D01*
X102580000Y-50980000D02*
X101026600Y-49426600D01*
%TD*%
D25*
X113580000Y-109940300D03*
X89231600Y-118006600D03*
X114420000Y-111883000D03*
X105995200Y-69603100D03*
X109964200Y-109781900D03*
X74880900Y-128845200D03*
X102285400Y-102505800D03*
D26*
X67480000Y-100360000D03*
X70020000Y-100360000D03*
X72560000Y-100360000D03*
X75100000Y-100360000D03*
X77640000Y-100360000D03*
X80180000Y-100360000D03*
X82720000Y-100360000D03*
X85260000Y-100360000D03*
X87800000Y-100360000D03*
X90340000Y-100360000D03*
X92880000Y-100360000D03*
X95420000Y-100360000D03*
X97960000Y-100360000D03*
X100500000Y-100360000D03*
X103040000Y-100360000D03*
X105580000Y-100360000D03*
X108120000Y-100360000D03*
X110660000Y-100360000D03*
X113200000Y-100360000D03*
X115737280Y-100363680D03*
X118277280Y-100363680D03*
X120817280Y-100363680D03*
X120820000Y-77500000D03*
X118280000Y-77500000D03*
X115740000Y-77500000D03*
X113200000Y-77500000D03*
X110660000Y-77500000D03*
X108120000Y-77500000D03*
X105580000Y-77500000D03*
X103040000Y-77500000D03*
X100500000Y-77500000D03*
X97960000Y-77500000D03*
X95420000Y-77500000D03*
X92880000Y-77500000D03*
X90340000Y-77500000D03*
X87800000Y-77500000D03*
X85260000Y-77500000D03*
X82720000Y-77500000D03*
X80180000Y-77500000D03*
X77640000Y-77500000D03*
X75100000Y-77500000D03*
X72560000Y-77500000D03*
X70020000Y-77500000D03*
X67480000Y-77500000D03*
X76550000Y-120210000D03*
D27*
X76550000Y-127410000D03*
D28*
X69350000Y-119320000D03*
X75300000Y-119680000D03*
X75300000Y-127940000D03*
X69350000Y-128300000D03*
D26*
X138430000Y-139410000D03*
X107270000Y-135610000D03*
X114890000Y-135610000D03*
X73370000Y-137900000D03*
X80540000Y-134030000D03*
X80540000Y-131490000D03*
X118370000Y-121900000D03*
X118370000Y-126900000D03*
X118370000Y-124400000D03*
D29*
X125870000Y-118800000D03*
X125870000Y-130000000D03*
D26*
X132870000Y-126900000D03*
X132870000Y-121900000D03*
X122080000Y-53000000D03*
X124620000Y-53000000D03*
X127160000Y-53000000D03*
X122080000Y-65700000D03*
X124620000Y-65700000D03*
X127160000Y-65700000D03*
X73360000Y-110552500D03*
X80360000Y-110552500D03*
D30*
X72060000Y-107352500D03*
X75060000Y-112852500D03*
X72060000Y-112852500D03*
X80560000Y-108352500D03*
X79060000Y-112852500D03*
D26*
X88570000Y-128550000D03*
X88570000Y-116550000D03*
X86030000Y-116550000D03*
X86030000Y-128550000D03*
X103810000Y-116550000D03*
X101270000Y-116550000D03*
X91110000Y-128550000D03*
X101270000Y-128550000D03*
X103810000Y-128550000D03*
X79720000Y-50980000D03*
X82260000Y-50980000D03*
X84800000Y-50980000D03*
X87340000Y-50980000D03*
X89880000Y-50980000D03*
X92420000Y-50980000D03*
X94960000Y-50980000D03*
X97500000Y-50980000D03*
X100040000Y-50980000D03*
X102580000Y-50980000D03*
X105120000Y-50980000D03*
X89880000Y-71300000D03*
X87340000Y-71300000D03*
X92420000Y-71300000D03*
X111080000Y-122550000D03*
X111080000Y-125090000D03*
X73370000Y-43900000D03*
X135060000Y-106700000D03*
X135060000Y-109240000D03*
X135060000Y-111780000D03*
X138430000Y-44280000D03*
M02*
