%TF.GenerationSoftware,KiCad,Pcbnew,10.0.2*%
%TF.CreationDate,2026-06-16T12:13:30+02:00*%
%TF.ProjectId,s3-salle-de-bain,73332d73-616c-46c6-952d-64652d626169,rev?*%
%TF.SameCoordinates,Original*%
%TF.FileFunction,Profile,NP*%
%FSLAX46Y46*%
G04 Gerber Fmt 4.6, Leading zero omitted, Abs format (unit mm)*
G04 Created by KiCad (PCBNEW 10.0.2) date 2026-06-16 12:13:30*
%MOMM*%
%LPD*%
G01*
G04 APERTURE LIST*
%TA.AperFunction,Profile*%
%ADD10C,0.150000*%
%TD*%
%ADD11C,0.350000*%
%ADD12O,0.649999X0.949999*%
%ADD13O,1.100000X0.500000*%
%ADD14O,2.800000X1.500000*%
%ADD15O,1.200000X0.600000*%
G04 APERTURE END LIST*
D10*
X65930000Y-144860000D02*
X65930000Y-36860000D01*
X65930000Y-36860000D02*
X142620000Y-36830000D01*
X142620000Y-36830000D02*
X142620000Y-144830000D01*
X142620000Y-144830000D02*
X65930000Y-144860000D01*
D11*
X67480000Y-100360000D03*
X70020000Y-100360000D03*
X72560000Y-100360000D03*
X75100000Y-100360000D03*
X77640000Y-100360000D03*
X80180000Y-100360000D03*
X82720000Y-100360000D03*
X85260000Y-100360000D03*
X87800000Y-100360000D03*
X90340000Y-100360000D03*
X92880000Y-100360000D03*
X95420000Y-100360000D03*
X97960000Y-100360000D03*
X100500000Y-100360000D03*
X103040000Y-100360000D03*
X105580000Y-100360000D03*
X108120000Y-100360000D03*
X110660000Y-100360000D03*
X113200000Y-100360000D03*
X115737280Y-100363680D03*
X118277280Y-100363680D03*
X120817280Y-100363680D03*
X120820000Y-77500000D03*
X118280000Y-77500000D03*
X115740000Y-77500000D03*
X113200000Y-77500000D03*
X110660000Y-77500000D03*
X108120000Y-77500000D03*
X105580000Y-77500000D03*
X103040000Y-77500000D03*
X100500000Y-77500000D03*
X97960000Y-77500000D03*
X95420000Y-77500000D03*
X92880000Y-77500000D03*
X90340000Y-77500000D03*
X87800000Y-77500000D03*
X85260000Y-77500000D03*
X82720000Y-77500000D03*
X80180000Y-77500000D03*
X77640000Y-77500000D03*
X75100000Y-77500000D03*
X72560000Y-77500000D03*
X70020000Y-77500000D03*
X67480000Y-77500000D03*
X76550000Y-120210000D03*
D12*
X76550000Y-127410000D03*
D13*
X69350000Y-119320000D03*
X75300000Y-119680000D03*
X75300000Y-127940000D03*
X69350000Y-128300000D03*
D11*
X138430000Y-139410000D03*
X107270000Y-135610000D03*
X114890000Y-135610000D03*
X73370000Y-137900000D03*
X80540000Y-134030000D03*
X80540000Y-131490000D03*
X118370000Y-121900000D03*
X118370000Y-126900000D03*
X118370000Y-124400000D03*
D14*
X125870000Y-118800000D03*
X125870000Y-130000000D03*
D11*
X132870000Y-126900000D03*
X132870000Y-121900000D03*
X122080000Y-53000000D03*
X124620000Y-53000000D03*
X127160000Y-53000000D03*
X122080000Y-65700000D03*
X124620000Y-65700000D03*
X127160000Y-65700000D03*
X73360000Y-110552500D03*
X80360000Y-110552500D03*
D15*
X72060000Y-107352500D03*
X75060000Y-112852500D03*
X72060000Y-112852500D03*
X80560000Y-108352500D03*
X79060000Y-112852500D03*
D11*
X88570000Y-128550000D03*
X88570000Y-116550000D03*
X86030000Y-116550000D03*
X86030000Y-128550000D03*
X103810000Y-116550000D03*
X101270000Y-116550000D03*
X91110000Y-128550000D03*
X101270000Y-128550000D03*
X103810000Y-128550000D03*
X79720000Y-50980000D03*
X82260000Y-50980000D03*
X84800000Y-50980000D03*
X87340000Y-50980000D03*
X89880000Y-50980000D03*
X92420000Y-50980000D03*
X94960000Y-50980000D03*
X97500000Y-50980000D03*
X100040000Y-50980000D03*
X102580000Y-50980000D03*
X105120000Y-50980000D03*
X89880000Y-71300000D03*
X87340000Y-71300000D03*
X92420000Y-71300000D03*
X111080000Y-122550000D03*
X111080000Y-125090000D03*
X73370000Y-43900000D03*
X135060000Y-106700000D03*
X135060000Y-109240000D03*
X135060000Y-111780000D03*
X138430000Y-44280000D03*
M02*
