%TF.GenerationSoftware,KiCad,Pcbnew,10.0.2*%
%TF.CreationDate,2026-06-16T12:13:30+02:00*%
%TF.ProjectId,s3-salle-de-bain,73332d73-616c-46c6-952d-64652d626169,rev?*%
%TF.SameCoordinates,Original*%
%TF.FileFunction,Copper,L1,Top*%
%TF.FilePolarity,Positive*%
%FSLAX46Y46*%
G04 Gerber Fmt 4.6, Leading zero omitted, Abs format (unit mm)*
G04 Created by KiCad (PCBNEW 10.0.2) date 2026-06-16 12:13:30*
%MOMM*%
%LPD*%
G01*
G04 APERTURE LIST*
G04 Aperture macros list*
%AMRoundRect*
0 Rectangle with rounded corners*
0 $1 Rounding radius*
0 $2 $3 $4 $5 $6 $7 $8 $9 X,Y pos of 4 corners*
0 Add a 4 corners polygon primitive as box body*
4,1,4,$2,$3,$4,$5,$6,$7,$8,$9,$2,$3,0*
0 Add four circle primitives for the rounded corners*
1,1,$1+$1,$2,$3*
1,1,$1+$1,$4,$5*
1,1,$1+$1,$6,$7*
1,1,$1+$1,$8,$9*
0 Add four rect primitives between the rounded corners*
20,1,$1+$1,$2,$3,$4,$5,0*
20,1,$1+$1,$4,$5,$6,$7,0*
20,1,$1+$1,$6,$7,$8,$9,0*
20,1,$1+$1,$8,$9,$2,$3,0*%
G04 Aperture macros list end*
%TA.AperFunction,ComponentPad*%
%ADD10R,1.200000X2.000000*%
%TD*%
%TA.AperFunction,ComponentPad*%
%ADD11O,1.200000X2.000000*%
%TD*%
%TA.AperFunction,SMDPad,CuDef*%
%ADD12RoundRect,0.225000X-0.225000X-0.250000X0.225000X-0.250000X0.225000X0.250000X-0.225000X0.250000X0*%
%TD*%
%TA.AperFunction,SMDPad,CuDef*%
%ADD13RoundRect,0.075000X-0.275000X0.075000X-0.275000X-0.075000X0.275000X-0.075000X0.275000X0.075000X0*%
%TD*%
%TA.AperFunction,ComponentPad*%
%ADD14O,1.400000X0.800000*%
%TD*%
%TA.AperFunction,SMDPad,CuDef*%
%ADD15RoundRect,0.218750X-0.218750X-0.381250X0.218750X-0.381250X0.218750X0.381250X-0.218750X0.381250X0*%
%TD*%
%TA.AperFunction,SMDPad,CuDef*%
%ADD16RoundRect,0.250000X-1.250000X-0.550000X1.250000X-0.550000X1.250000X0.550000X-1.250000X0.550000X0*%
%TD*%
%TA.AperFunction,ComponentPad*%
%ADD17RoundRect,0.250000X-0.550000X-0.550000X0.550000X-0.550000X0.550000X0.550000X-0.550000X0.550000X0*%
%TD*%
%TA.AperFunction,ComponentPad*%
%ADD18C,1.600000*%
%TD*%
%TA.AperFunction,SMDPad,CuDef*%
%ADD19RoundRect,0.150000X-0.587500X-0.150000X0.587500X-0.150000X0.587500X0.150000X-0.587500X0.150000X0*%
%TD*%
%TA.AperFunction,ComponentPad*%
%ADD20R,1.700000X1.700000*%
%TD*%
%TA.AperFunction,ComponentPad*%
%ADD21C,1.700000*%
%TD*%
%TA.AperFunction,ComponentPad*%
%ADD22R,2.000000X2.000000*%
%TD*%
%TA.AperFunction,ComponentPad*%
%ADD23C,2.000000*%
%TD*%
%TA.AperFunction,ComponentPad*%
%ADD24R,3.200000X2.000000*%
%TD*%
%TA.AperFunction,ComponentPad*%
%ADD25R,1.600000X1.600000*%
%TD*%
%TA.AperFunction,SMDPad,CuDef*%
%ADD26RoundRect,0.375000X-0.625000X-0.375000X0.625000X-0.375000X0.625000X0.375000X-0.625000X0.375000X0*%
%TD*%
%TA.AperFunction,SMDPad,CuDef*%
%ADD27RoundRect,0.500000X-0.500000X-1.400000X0.500000X-1.400000X0.500000X1.400000X-0.500000X1.400000X0*%
%TD*%
%TA.AperFunction,ComponentPad*%
%ADD28O,2.000000X1.400000*%
%TD*%
%TA.AperFunction,ComponentPad*%
%ADD29R,2.000000X1.400000*%
%TD*%
%TA.AperFunction,SMDPad,CuDef*%
%ADD30RoundRect,0.200000X-0.200000X-0.275000X0.200000X-0.275000X0.200000X0.275000X-0.200000X0.275000X0*%
%TD*%
%TA.AperFunction,ViaPad*%
%ADD31C,0.600000*%
%TD*%
%TA.AperFunction,Conductor*%
%ADD32C,0.200000*%
%TD*%
%ADD33C,0.300000*%
%ADD34C,0.350000*%
%ADD35O,0.649999X0.949999*%
%ADD36O,1.100000X0.500000*%
%ADD37O,2.800000X1.500000*%
%ADD38O,1.200000X0.600000*%
G04 APERTURE END LIST*
D10*
%TO.P,U1,1*%
%TO.N,+3V3*%
X67480000Y-100360000D03*
D11*
%TO.P,U1,2*%
%TO.N,N/C*%
X70020000Y-100360000D03*
%TO.P,U1,3*%
X72560000Y-100360000D03*
%TO.P,U1,4*%
%TO.N,MIC_LRCLK*%
X75100000Y-100360000D03*
%TO.P,U1,5*%
%TO.N,MIC_BCLK*%
X77640000Y-100360000D03*
%TO.P,U1,6*%
%TO.N,N/C*%
X80180000Y-100360000D03*
%TO.P,U1,7*%
%TO.N,DAC_LRCK*%
X82720000Y-100360000D03*
%TO.P,U1,8*%
%TO.N,N/C*%
X85260000Y-100360000D03*
%TO.P,U1,9*%
%TO.N,ENC_A*%
X87800000Y-100360000D03*
%TO.P,U1,10*%
%TO.N,JACK_DET*%
X90340000Y-100360000D03*
%TO.P,U1,11*%
%TO.N,ENC_B*%
X92880000Y-100360000D03*
%TO.P,U1,12*%
%TO.N,DAC_BCK*%
X95420000Y-100360000D03*
%TO.P,U1,13*%
%TO.N,N/C*%
X97960000Y-100360000D03*
%TO.P,U1,14*%
X100500000Y-100360000D03*
%TO.P,U1,15*%
%TO.N,LED_PWR_EN*%
X103040000Y-100360000D03*
%TO.P,U1,16*%
%TO.N,DAC_DIN*%
X105580000Y-100360000D03*
%TO.P,U1,17*%
%TO.N,MIC_DIN*%
X108120000Y-100360000D03*
%TO.P,U1,18*%
%TO.N,N/C*%
X110660000Y-100360000D03*
%TO.P,U1,19*%
X113200000Y-100360000D03*
%TO.P,U1,20*%
X115737280Y-100363680D03*
%TO.P,U1,21*%
%TO.N,+5V*%
X118277280Y-100363680D03*
%TO.P,U1,22*%
%TO.N,GND*%
X120817280Y-100363680D03*
%TO.P,U1,23*%
%TO.N,N/C*%
X120820000Y-77500000D03*
%TO.P,U1,24*%
X118280000Y-77500000D03*
%TO.P,U1,25*%
X115740000Y-77500000D03*
%TO.P,U1,26*%
X113200000Y-77500000D03*
%TO.P,U1,27*%
%TO.N,LED_DIN_RAW*%
X110660000Y-77500000D03*
%TO.P,U1,28*%
%TO.N,AMP_EN*%
X108120000Y-77500000D03*
%TO.P,U1,29*%
%TO.N,N/C*%
X105580000Y-77500000D03*
%TO.P,U1,30*%
X103040000Y-77500000D03*
%TO.P,U1,31*%
X100500000Y-77500000D03*
%TO.P,U1,32*%
X97960000Y-77500000D03*
%TO.P,U1,33*%
X95420000Y-77500000D03*
%TO.P,U1,34*%
X92880000Y-77500000D03*
%TO.P,U1,35*%
X90340000Y-77500000D03*
%TO.P,U1,36*%
X87800000Y-77500000D03*
%TO.P,U1,37*%
X85260000Y-77500000D03*
%TO.P,U1,38*%
X82720000Y-77500000D03*
%TO.P,U1,39*%
X80180000Y-77500000D03*
%TO.P,U1,40*%
%TO.N,MUTE_SW*%
X77640000Y-77500000D03*
%TO.P,U1,41*%
%TO.N,BTN_CENTER*%
X75100000Y-77500000D03*
%TO.P,U1,42*%
%TO.N,N/C*%
X72560000Y-77500000D03*
%TO.P,U1,43*%
X70020000Y-77500000D03*
%TO.P,U1,44*%
%TO.N,GND*%
X67480000Y-77500000D03*
%TD*%
D12*
%TO.P,C4,1*%
%TO.N,+3V3*%
X105200000Y-107990000D03*
%TO.P,C4,2*%
%TO.N,GND*%
X106750000Y-107990000D03*
%TD*%
D13*
%TO.P,J2,A1*%
%TO.N,GND*%
X77210000Y-121060000D03*
%TO.P,J2,A2*%
%TO.N,N/C*%
X77210000Y-121560000D03*
%TO.P,J2,A3*%
X77210000Y-122060000D03*
%TO.P,J2,A4*%
%TO.N,+5V*%
X77210000Y-122560000D03*
%TO.P,J2,A5*%
%TO.N,N/C*%
X77210000Y-123060000D03*
%TO.P,J2,A6*%
X77210000Y-123560000D03*
%TO.P,J2,A7*%
X77210000Y-124060000D03*
%TO.P,J2,A8*%
X77210000Y-124560000D03*
%TO.P,J2,A9*%
%TO.N,+5V*%
X77210000Y-125060000D03*
%TO.P,J2,A10*%
%TO.N,N/C*%
X77210000Y-125560000D03*
%TO.P,J2,A11*%
X77210000Y-126060000D03*
%TO.P,J2,A12*%
%TO.N,GND*%
X77210000Y-126560000D03*
%TO.P,J2,B1*%
X75510000Y-126310000D03*
%TO.P,J2,B2*%
%TO.N,N/C*%
X75510000Y-125810000D03*
%TO.P,J2,B3*%
X75510000Y-125310000D03*
%TO.P,J2,B4*%
%TO.N,+5V*%
X75510000Y-124810000D03*
%TO.P,J2,B5*%
%TO.N,N/C*%
X75510000Y-124310000D03*
%TO.P,J2,B6*%
X75510000Y-123810000D03*
%TO.P,J2,B7*%
X75510000Y-123310000D03*
%TO.P,J2,B8*%
X75510000Y-122810000D03*
%TO.P,J2,B9*%
%TO.N,+5V*%
X75510000Y-122310000D03*
%TO.P,J2,B10*%
%TO.N,N/C*%
X75510000Y-121810000D03*
%TO.P,J2,B11*%
X75510000Y-121310000D03*
%TO.P,J2,B12*%
%TO.N,GND*%
X75510000Y-120810000D03*
D14*
%TO.P,J2,SH*%
X69350000Y-119320000D03*
X75300000Y-119680000D03*
X75300000Y-127940000D03*
X69350000Y-128300000D03*
%TD*%
D15*
%TO.P,F1,1*%
%TO.N,+5V*%
X134340000Y-78890000D03*
%TO.P,F1,2*%
%TO.N,+5V_LED*%
X136465000Y-78890000D03*
%TD*%
D16*
%TO.P,C5,1*%
%TO.N,+5V*%
X133190000Y-87150000D03*
%TO.P,C5,2*%
%TO.N,GND*%
X137590000Y-87150000D03*
%TD*%
D17*
%TO.P,SW2,1*%
%TO.N,MUTE_SW*%
X107270000Y-135610000D03*
D18*
%TO.P,SW2,2*%
%TO.N,GND*%
X114890000Y-135610000D03*
%TD*%
D16*
%TO.P,C6,1*%
%TO.N,+5V_LED*%
X133180000Y-95370000D03*
%TO.P,C6,2*%
%TO.N,GND*%
X137580000Y-95370000D03*
%TD*%
D19*
%TO.P,Q2,1*%
%TO.N,AMP_EN*%
X109815000Y-112850000D03*
%TO.P,Q2,2*%
%TO.N,+5V*%
X109815000Y-114750000D03*
%TO.P,Q2,3*%
%TO.N,+5V_AMP*%
X111690000Y-113800000D03*
%TD*%
D12*
%TO.P,C2,1*%
%TO.N,+5V*%
X95200000Y-107990000D03*
%TO.P,C2,2*%
%TO.N,GND*%
X96750000Y-107990000D03*
%TD*%
%TO.P,C3,1*%
%TO.N,+3V3*%
X100200000Y-107990000D03*
%TO.P,C3,2*%
%TO.N,GND*%
X101750000Y-107990000D03*
%TD*%
D20*
%TO.P,HP1,1*%
%TO.N,SPK_L+*%
X80540000Y-134030000D03*
D21*
%TO.P,HP1,2*%
%TO.N,SPK_L-*%
X80540000Y-131490000D03*
%TD*%
D22*
%TO.P,SW1,A*%
%TO.N,ENC_A*%
X118370000Y-121900000D03*
D23*
%TO.P,SW1,B*%
%TO.N,ENC_B*%
X118370000Y-126900000D03*
%TO.P,SW1,C*%
%TO.N,GND*%
X118370000Y-124400000D03*
D24*
%TO.P,SW1,MP*%
X125870000Y-118800000D03*
X125870000Y-130000000D03*
D23*
%TO.P,SW1,S1*%
%TO.N,BTN_CENTER*%
X132870000Y-126900000D03*
%TO.P,SW1,S2*%
%TO.N,GND*%
X132870000Y-121900000D03*
%TD*%
D25*
%TO.P,U4,1*%
%TO.N,GND*%
X122080000Y-53000000D03*
D18*
%TO.P,U4,2*%
%TO.N,MIC_LRCLK*%
X124620000Y-53000000D03*
%TO.P,U4,3*%
%TO.N,MIC_BCLK*%
X127160000Y-53000000D03*
%TO.P,U4,4*%
%TO.N,MIC_DIN*%
X122080000Y-65700000D03*
%TO.P,U4,5*%
%TO.N,+3V3*%
X124620000Y-65700000D03*
%TO.P,U4,6*%
%TO.N,GND*%
X127160000Y-65700000D03*
%TD*%
D26*
%TO.P,U5,1*%
%TO.N,GND*%
X121160000Y-106260000D03*
%TO.P,U5,2*%
%TO.N,+3V3*%
X121160000Y-108560000D03*
D27*
X127460000Y-108560000D03*
D26*
%TO.P,U5,3*%
%TO.N,+5V*%
X121160000Y-110860000D03*
%TD*%
D12*
%TO.P,C1,1*%
%TO.N,+5V*%
X90200000Y-107990000D03*
%TO.P,C1,2*%
%TO.N,GND*%
X91750000Y-107990000D03*
%TD*%
D28*
%TO.P,J1,*%
%TO.N,*%
X72060000Y-107352500D03*
%TO.P,J1,R1*%
%TO.N,AUDIO_R*%
X75060000Y-112852500D03*
%TO.P,J1,R2*%
%TO.N,JACK_DET*%
X72060000Y-112852500D03*
%TO.P,J1,S*%
%TO.N,GND*%
X80560000Y-108352500D03*
D29*
%TO.P,J1,T*%
%TO.N,AUDIO_L*%
X79060000Y-112852500D03*
%TD*%
D30*
%TO.P,R2,1*%
%TO.N,LED_DIN_RAW*%
X111930000Y-107990000D03*
%TO.P,R2,2*%
%TO.N,LED_DIN*%
X113580000Y-107990000D03*
%TD*%
D18*
%TO.P,U3,GI*%
%TO.N,GND*%
X88570000Y-128550000D03*
%TO.P,U3,L+*%
%TO.N,SPK_L+*%
X88570000Y-116550000D03*
D25*
%TO.P,U3,L-*%
%TO.N,SPK_L-*%
X86030000Y-116550000D03*
D18*
%TO.P,U3,LI*%
%TO.N,AUDIO_L*%
X86030000Y-128550000D03*
%TO.P,U3,R+*%
%TO.N,SPK_R+*%
X103810000Y-116550000D03*
%TO.P,U3,R-*%
%TO.N,SPK_R-*%
X101270000Y-116550000D03*
%TO.P,U3,RI*%
%TO.N,AUDIO_R*%
X91110000Y-128550000D03*
%TO.P,U3,V+*%
%TO.N,+5V_AMP*%
X101270000Y-128550000D03*
%TO.P,U3,V-*%
%TO.N,GND*%
X103810000Y-128550000D03*
%TD*%
D20*
%TO.P,U2,1*%
%TO.N,+3V3*%
X79720000Y-50980000D03*
D21*
%TO.P,U2,2*%
%TO.N,GND*%
X82260000Y-50980000D03*
%TO.P,U2,3*%
%TO.N,DAC_LRCK*%
X84800000Y-50980000D03*
%TO.P,U2,4*%
%TO.N,DAC_DIN*%
X87340000Y-50980000D03*
%TO.P,U2,5*%
%TO.N,DAC_BCK*%
X89880000Y-50980000D03*
%TO.P,U2,6*%
%TO.N,GND*%
X92420000Y-50980000D03*
%TO.P,U2,7*%
X94960000Y-50980000D03*
%TO.P,U2,8*%
X97500000Y-50980000D03*
%TO.P,U2,9*%
X100040000Y-50980000D03*
%TO.P,U2,10*%
%TO.N,+3V3*%
X102580000Y-50980000D03*
%TO.P,U2,11*%
X105120000Y-50980000D03*
%TO.P,U2,G*%
%TO.N,GND*%
X89880000Y-71300000D03*
%TO.P,U2,L*%
%TO.N,AUDIO_L*%
X87340000Y-71300000D03*
%TO.P,U2,R*%
%TO.N,AUDIO_R*%
X92420000Y-71300000D03*
%TD*%
D19*
%TO.P,Q1,1*%
%TO.N,LED_PWR_EN*%
X114420000Y-112710000D03*
%TO.P,Q1,2*%
%TO.N,+5V*%
X114420000Y-114610000D03*
%TO.P,Q1,3*%
%TO.N,+5V_LED*%
X116295000Y-113660000D03*
%TD*%
D20*
%TO.P,HP2,1*%
%TO.N,SPK_R+*%
X111080000Y-122550000D03*
D21*
%TO.P,HP2,2*%
%TO.N,SPK_R-*%
X111080000Y-125090000D03*
%TD*%
D20*
%TO.P,DS1,1*%
%TO.N,+5V_LED*%
X135060000Y-106700000D03*
D21*
%TO.P,DS1,2*%
%TO.N,GND*%
X135060000Y-109240000D03*
%TO.P,DS1,3*%
%TO.N,LED_DIN*%
X135060000Y-111780000D03*
%TD*%
D30*
%TO.P,R1,1*%
%TO.N,BTN_CENTER*%
X110365000Y-73320000D03*
%TO.P,R1,2*%
%TO.N,+3V3*%
X112015000Y-73320000D03*
%TD*%
D31*
%TO.N,LED_DIN*%
X113580000Y-109940300D03*
%TO.N,AUDIO_L*%
X89231600Y-118006600D03*
%TO.N,LED_PWR_EN*%
X114420000Y-111883000D03*
%TO.N,BTN_CENTER*%
X105995200Y-69603100D03*
X109964200Y-109781900D03*
%TO.N,MUTE_SW*%
X74880900Y-128845200D03*
%TO.N,+5V*%
X102285400Y-102505800D03*
%TD*%
%TO.N,+5V*%
D32*
X75990000Y-122360000D02*
X75890000Y-122290000D01*
X76110000Y-122470000D02*
X75990000Y-122360000D01*
X75890000Y-122290000D02*
X75510000Y-122310000D01*
X76270000Y-122760000D02*
X76110000Y-122470000D01*
X76480000Y-122760000D02*
X76270000Y-122760000D01*
X76480000Y-122760000D02*
X76470000Y-124840000D01*
X76570000Y-122680000D02*
X76480000Y-122760000D01*
X76720000Y-122560000D02*
X76570000Y-122680000D01*
X77210000Y-122560000D02*
X76720000Y-122560000D01*
X76470000Y-124840000D02*
X75510000Y-124810000D01*
X76560000Y-124940000D02*
X76470000Y-124840000D01*
X76640000Y-125050000D02*
X76560000Y-124940000D01*
X77210000Y-125060000D02*
X76640000Y-125050000D01*
%TO.N,LED_DIN*%
X113580000Y-109940300D02*
X113580000Y-107990000D01*
%TO.N,AUDIO_L*%
X79060000Y-112852500D02*
X80361700Y-112852500D01*
X86567700Y-72072300D02*
X87340000Y-71300000D01*
X86567700Y-106646500D02*
X86567700Y-72072300D01*
X80361700Y-112852500D02*
X86567700Y-106646500D01*
X89231600Y-125348400D02*
X86030000Y-128550000D01*
X89231600Y-118006600D02*
X89231600Y-125348400D01*
%TO.N,AUDIO_R*%
X83990000Y-102920800D02*
X75060000Y-111850800D01*
X83990000Y-99830000D02*
X83990000Y-102920800D01*
X86166000Y-97654000D02*
X83990000Y-99830000D01*
X86166000Y-70809500D02*
X86166000Y-97654000D01*
X86833700Y-70141800D02*
X86166000Y-70809500D01*
X87844400Y-70141800D02*
X86833700Y-70141800D01*
X88610000Y-70907400D02*
X87844400Y-70141800D01*
X88610000Y-71731600D02*
X88610000Y-70907400D01*
X89364400Y-72486000D02*
X88610000Y-71731600D01*
X91234000Y-72486000D02*
X89364400Y-72486000D01*
X92420000Y-71300000D02*
X91234000Y-72486000D01*
X75060000Y-112852500D02*
X75060000Y-111850800D01*
%TO.N,LED_DIN_RAW*%
X110660000Y-77500000D02*
X110660000Y-78801700D01*
X111930000Y-80071700D02*
X111930000Y-107990000D01*
X110660000Y-78801700D02*
X111930000Y-80071700D01*
%TO.N,DAC_DIN*%
X104322600Y-97800900D02*
X105580000Y-99058300D01*
X104322600Y-76825700D02*
X104322600Y-97800900D01*
X96320200Y-68823300D02*
X104322600Y-76825700D01*
X96320200Y-50704800D02*
X96320200Y-68823300D01*
X95017000Y-49401600D02*
X96320200Y-50704800D01*
X88918400Y-49401600D02*
X95017000Y-49401600D01*
X87340000Y-50980000D02*
X88918400Y-49401600D01*
X105580000Y-100360000D02*
X105580000Y-99058300D01*
%TO.N,LED_PWR_EN*%
X114420000Y-112710000D02*
X114420000Y-111883000D01*
%TO.N,DAC_BCK*%
X95420000Y-100360000D02*
X95420000Y-99058300D01*
X91043300Y-49816700D02*
X89880000Y-50980000D01*
X92885700Y-49816700D02*
X91043300Y-49816700D01*
X93690000Y-50621000D02*
X92885700Y-49816700D01*
X93690000Y-52040000D02*
X93690000Y-50621000D01*
X94150000Y-52500000D02*
X93690000Y-52040000D01*
X94150000Y-97788300D02*
X94150000Y-52500000D01*
X95420000Y-99058300D02*
X94150000Y-97788300D01*
%TO.N,DAC_LRCK*%
X83638700Y-98139600D02*
X82720000Y-99058300D01*
X83638700Y-52141300D02*
X83638700Y-98139600D01*
X84800000Y-50980000D02*
X83638700Y-52141300D01*
X82720000Y-100360000D02*
X82720000Y-99058300D01*
%TO.N,BTN_CENTER*%
X109758300Y-109576000D02*
X109964200Y-109781900D01*
X109758300Y-73320000D02*
X109758300Y-109576000D01*
X110365000Y-73320000D02*
X109758300Y-73320000D01*
X109712100Y-73320000D02*
X105995200Y-69603100D01*
X109758300Y-73320000D02*
X109712100Y-73320000D01*
%TO.N,SPK_L-*%
X86030000Y-126000000D02*
X80540000Y-131490000D01*
X86030000Y-116550000D02*
X86030000Y-126000000D01*
%TO.N,SPK_L+*%
X80540000Y-134030000D02*
X80540000Y-132878300D01*
X80828000Y-132878300D02*
X80540000Y-132878300D01*
X81691700Y-132014600D02*
X80828000Y-132878300D01*
X81691700Y-130918100D02*
X81691700Y-132014600D01*
X88570000Y-124039800D02*
X81691700Y-130918100D01*
X88570000Y-116550000D02*
X88570000Y-124039800D01*
%TO.N,+5V_AMP*%
X111690000Y-118130000D02*
X111690000Y-113800000D01*
X101270000Y-128550000D02*
X111690000Y-118130000D01*
%TO.N,AMP_EN*%
X108120000Y-77500000D02*
X108120000Y-78801700D01*
X109356600Y-112391600D02*
X109815000Y-112850000D01*
X109356600Y-80606400D02*
X109356600Y-112391600D01*
X108120000Y-79369800D02*
X109356600Y-80606400D01*
X108120000Y-78801700D02*
X108120000Y-79369800D01*
%TO.N,MUTE_SW*%
X77640000Y-77500000D02*
X77640000Y-78801700D01*
X73754000Y-127718300D02*
X74880900Y-128845200D01*
X73754000Y-111991800D02*
X73754000Y-127718300D01*
X76401400Y-109344400D02*
X73754000Y-111991800D01*
X76401400Y-80040300D02*
X76401400Y-109344400D01*
X77640000Y-78801700D02*
X76401400Y-80040300D01*
%TO.N,+5V_LED*%
X126948300Y-113660000D02*
X133908300Y-106700000D01*
X116295000Y-113660000D02*
X126948300Y-113660000D01*
X135060000Y-106700000D02*
X133908300Y-106700000D01*
X135060000Y-95370000D02*
X133180000Y-95370000D01*
X135060000Y-106700000D02*
X135060000Y-95370000D01*
X135060000Y-80295000D02*
X136465000Y-78890000D01*
X135060000Y-95370000D02*
X135060000Y-80295000D01*
%TO.N,+5V*%
X120590200Y-110290200D02*
X121160000Y-110860000D01*
X118277300Y-110290200D02*
X120590200Y-110290200D01*
X118277300Y-100363700D02*
X118277300Y-110290200D01*
X114482500Y-114085000D02*
X114420000Y-114085000D01*
X118277300Y-110290200D02*
X114482500Y-114085000D01*
X114420000Y-114085000D02*
X114420000Y-114610000D01*
X133190000Y-80040000D02*
X134340000Y-78890000D01*
X133190000Y-87150000D02*
X133190000Y-80040000D01*
X128206100Y-110860000D02*
X121160000Y-110860000D01*
X128986500Y-110079600D02*
X128206100Y-110860000D01*
X128986500Y-91353500D02*
X128986500Y-110079600D01*
X133190000Y-87150000D02*
X128986500Y-91353500D01*
X94405300Y-107195300D02*
X95200000Y-107990000D01*
X90994700Y-107195300D02*
X94405300Y-107195300D01*
X90200000Y-107990000D02*
X90994700Y-107195300D01*
X113416500Y-114085000D02*
X114420000Y-114085000D01*
X112486200Y-113154700D02*
X113416500Y-114085000D01*
X110897800Y-113154700D02*
X112486200Y-113154700D01*
X109815000Y-114237500D02*
X110897800Y-113154700D01*
X109815000Y-114750000D02*
X109815000Y-114237500D01*
X100684200Y-102505800D02*
X95200000Y-107990000D01*
X102285400Y-102505800D02*
X100684200Y-102505800D01*
X90200000Y-109958600D02*
X90200000Y-107990000D01*
X77598600Y-122560000D02*
X90200000Y-109958600D01*
X77210000Y-122560000D02*
X77598600Y-122560000D01*
%TO.N,GND*%
X137580000Y-106720000D02*
X137580000Y-95370000D01*
X135060000Y-109240000D02*
X137580000Y-106720000D01*
X92420000Y-68760000D02*
X92420000Y-50980000D01*
X89880000Y-71300000D02*
X92420000Y-68760000D01*
X80560000Y-108352500D02*
X80560000Y-109354200D01*
X120817300Y-105917300D02*
X121160000Y-106260000D01*
X120817300Y-100363700D02*
X120817300Y-105917300D01*
X122080000Y-60620000D02*
X122080000Y-53000000D01*
X127160000Y-65700000D02*
X122080000Y-60620000D01*
X137590000Y-76130000D02*
X137590000Y-87150000D01*
X127160000Y-65700000D02*
X137590000Y-76130000D01*
X127771700Y-130000000D02*
X127771700Y-118800000D01*
X125870000Y-130000000D02*
X127771700Y-130000000D01*
X125870000Y-118800000D02*
X127771700Y-118800000D01*
X132870000Y-111430000D02*
X135060000Y-109240000D01*
X132870000Y-121900000D02*
X132870000Y-111430000D01*
X137590000Y-95360000D02*
X137590000Y-87150000D01*
X137580000Y-95370000D02*
X137590000Y-95360000D01*
X75300000Y-126520000D02*
X75510000Y-126310000D01*
X75300000Y-127940000D02*
X75300000Y-126520000D01*
X75510000Y-119890000D02*
X75510000Y-120810000D01*
X75300000Y-119680000D02*
X75510000Y-119890000D01*
X75760000Y-126560000D02*
X77210000Y-126560000D01*
X75510000Y-126310000D02*
X75760000Y-126560000D01*
X77183300Y-121086700D02*
X77210000Y-121060000D01*
X76186900Y-121086700D02*
X77183300Y-121086700D01*
X75673300Y-120573100D02*
X76186900Y-121086700D01*
X75673300Y-120053300D02*
X75673300Y-120573100D01*
X75300000Y-119680000D02*
X75673300Y-120053300D01*
X70351700Y-128300000D02*
X70351700Y-119320000D01*
X69350000Y-128300000D02*
X70351700Y-128300000D01*
X69350000Y-119320000D02*
X70351700Y-119320000D01*
X95955600Y-108784400D02*
X96750000Y-107990000D01*
X91750000Y-108784400D02*
X95955600Y-108784400D01*
X91750000Y-107990000D02*
X91750000Y-108784400D01*
X91750000Y-125370000D02*
X88570000Y-128550000D01*
X91750000Y-108784400D02*
X91750000Y-125370000D01*
X101750000Y-107990000D02*
X101750000Y-108767600D01*
X97527600Y-108767600D02*
X101750000Y-108767600D01*
X96750000Y-107990000D02*
X97527600Y-108767600D01*
X105972400Y-108767600D02*
X106750000Y-107990000D01*
X101750000Y-108767600D02*
X105972400Y-108767600D01*
X79902600Y-109354200D02*
X80560000Y-109354200D01*
X77495700Y-111761100D02*
X79902600Y-109354200D01*
X77495700Y-120774300D02*
X77495700Y-111761100D01*
X77210000Y-121060000D02*
X77495700Y-120774300D01*
%TO.N,+3V3*%
X117000000Y-73320000D02*
X124620000Y-65700000D01*
X112015000Y-73320000D02*
X117000000Y-73320000D01*
X127460000Y-108560000D02*
X121160000Y-108560000D01*
X112015000Y-78485000D02*
X112015000Y-73320000D01*
X119833800Y-86303800D02*
X112015000Y-78485000D01*
X119833800Y-107233800D02*
X119833800Y-86303800D01*
X121160000Y-108560000D02*
X119833800Y-107233800D01*
X104415600Y-107205600D02*
X105200000Y-107990000D01*
X100984400Y-107205600D02*
X104415600Y-107205600D01*
X100200000Y-107990000D02*
X100984400Y-107205600D01*
X106489100Y-106700900D02*
X105200000Y-107990000D01*
X106489100Y-72158500D02*
X106489100Y-106700900D01*
X105376700Y-71046100D02*
X106489100Y-72158500D01*
X105376700Y-68993600D02*
X105376700Y-71046100D01*
X105120000Y-68736900D02*
X105376700Y-68993600D01*
X105120000Y-50980000D02*
X105120000Y-68736900D01*
X107688600Y-68993600D02*
X112015000Y-73320000D01*
X105376700Y-68993600D02*
X107688600Y-68993600D01*
X68381700Y-98156600D02*
X67480000Y-99058300D01*
X68381700Y-63470000D02*
X68381700Y-98156600D01*
X79720000Y-52131700D02*
X68381700Y-63470000D01*
X79720000Y-50980000D02*
X79720000Y-52131700D01*
X67480000Y-100360000D02*
X67480000Y-99058300D01*
%TD*%
D33*
X113580000Y-109940300D03*
X89231600Y-118006600D03*
X114420000Y-111883000D03*
X105995200Y-69603100D03*
X109964200Y-109781900D03*
X74880900Y-128845200D03*
X102285400Y-102505800D03*
D34*
X67480000Y-100360000D03*
X70020000Y-100360000D03*
X72560000Y-100360000D03*
X75100000Y-100360000D03*
X77640000Y-100360000D03*
X80180000Y-100360000D03*
X82720000Y-100360000D03*
X85260000Y-100360000D03*
X87800000Y-100360000D03*
X90340000Y-100360000D03*
X92880000Y-100360000D03*
X95420000Y-100360000D03*
X97960000Y-100360000D03*
X100500000Y-100360000D03*
X103040000Y-100360000D03*
X105580000Y-100360000D03*
X108120000Y-100360000D03*
X110660000Y-100360000D03*
X113200000Y-100360000D03*
X115737280Y-100363680D03*
X118277280Y-100363680D03*
X120817280Y-100363680D03*
X120820000Y-77500000D03*
X118280000Y-77500000D03*
X115740000Y-77500000D03*
X113200000Y-77500000D03*
X110660000Y-77500000D03*
X108120000Y-77500000D03*
X105580000Y-77500000D03*
X103040000Y-77500000D03*
X100500000Y-77500000D03*
X97960000Y-77500000D03*
X95420000Y-77500000D03*
X92880000Y-77500000D03*
X90340000Y-77500000D03*
X87800000Y-77500000D03*
X85260000Y-77500000D03*
X82720000Y-77500000D03*
X80180000Y-77500000D03*
X77640000Y-77500000D03*
X75100000Y-77500000D03*
X72560000Y-77500000D03*
X70020000Y-77500000D03*
X67480000Y-77500000D03*
X76550000Y-120210000D03*
D35*
X76550000Y-127410000D03*
D36*
X69350000Y-119320000D03*
X75300000Y-119680000D03*
X75300000Y-127940000D03*
X69350000Y-128300000D03*
D34*
X138430000Y-139410000D03*
X107270000Y-135610000D03*
X114890000Y-135610000D03*
X73370000Y-137900000D03*
X80540000Y-134030000D03*
X80540000Y-131490000D03*
X118370000Y-121900000D03*
X118370000Y-126900000D03*
X118370000Y-124400000D03*
D37*
X125870000Y-118800000D03*
X125870000Y-130000000D03*
D34*
X132870000Y-126900000D03*
X132870000Y-121900000D03*
X122080000Y-53000000D03*
X124620000Y-53000000D03*
X127160000Y-53000000D03*
X122080000Y-65700000D03*
X124620000Y-65700000D03*
X127160000Y-65700000D03*
X73360000Y-110552500D03*
X80360000Y-110552500D03*
D38*
X72060000Y-107352500D03*
X75060000Y-112852500D03*
X72060000Y-112852500D03*
X80560000Y-108352500D03*
X79060000Y-112852500D03*
D34*
X88570000Y-128550000D03*
X88570000Y-116550000D03*
X86030000Y-116550000D03*
X86030000Y-128550000D03*
X103810000Y-116550000D03*
X101270000Y-116550000D03*
X91110000Y-128550000D03*
X101270000Y-128550000D03*
X103810000Y-128550000D03*
X79720000Y-50980000D03*
X82260000Y-50980000D03*
X84800000Y-50980000D03*
X87340000Y-50980000D03*
X89880000Y-50980000D03*
X92420000Y-50980000D03*
X94960000Y-50980000D03*
X97500000Y-50980000D03*
X100040000Y-50980000D03*
X102580000Y-50980000D03*
X105120000Y-50980000D03*
X89880000Y-71300000D03*
X87340000Y-71300000D03*
X92420000Y-71300000D03*
X111080000Y-122550000D03*
X111080000Y-125090000D03*
X73370000Y-43900000D03*
X135060000Y-106700000D03*
X135060000Y-109240000D03*
X135060000Y-111780000D03*
X138430000Y-44280000D03*
M02*
