M48
; DRILL file KiCad 10.0.2 date 2026-06-16T12:13:30
; FORMAT={-:-/ absolute / metric / decimal}
; #@! TF.CreationDate,2026-06-16T12:13:30+02:00
; #@! TF.GenerationSoftware,Kicad,Pcbnew,10.0.2
; #@! TF.FileFunction,Plated,1,2,PTH
FMAT,2
METRIC
; #@! TA.AperFunction,Plated,PTH,ViaDrill
T1C0.300
; #@! TA.AperFunction,Plated,PTH,ComponentDrill
T2C0.500
; #@! TA.AperFunction,Plated,PTH,ComponentDrill
T3C0.600
; #@! TA.AperFunction,Plated,PTH,ComponentDrill
T4C0.800
; #@! TA.AperFunction,Plated,PTH,ComponentDrill
T5C0.900
; #@! TA.AperFunction,Plated,PTH,ComponentDrill
T6C1.000
; #@! TA.AperFunction,Plated,PTH,ComponentDrill
T7C1.500
%
G90
G05
T1
X74.881Y-128.845
X89.232Y-118.007
X102.285Y-102.506
X105.995Y-69.603
X109.964Y-109.782
X113.58Y-109.94
X114.42Y-111.883
T4
X67.48Y-77.5
X67.48Y-100.36
X70.02Y-77.5
X70.02Y-100.36
X72.56Y-77.5
X72.56Y-100.36
X75.1Y-77.5
X75.1Y-100.36
X77.64Y-77.5
X77.64Y-100.36
X80.18Y-77.5
X80.18Y-100.36
X82.72Y-77.5
X82.72Y-100.36
X85.26Y-77.5
X85.26Y-100.36
X87.8Y-77.5
X87.8Y-100.36
X90.34Y-77.5
X90.34Y-100.36
X92.88Y-77.5
X92.88Y-100.36
X95.42Y-77.5
X95.42Y-100.36
X97.96Y-77.5
X97.96Y-100.36
X100.5Y-77.5
X100.5Y-100.36
X103.04Y-77.5
X103.04Y-100.36
X105.58Y-77.5
X105.58Y-100.36
X107.27Y-135.61
X108.12Y-77.5
X108.12Y-100.36
X110.66Y-77.5
X110.66Y-100.36
X113.2Y-77.5
X113.2Y-100.36
X114.89Y-135.61
X115.737Y-100.364
X115.74Y-77.5
X118.277Y-100.364
X118.28Y-77.5
X120.817Y-100.364
X120.82Y-77.5
T5
X86.03Y-116.55
X86.03Y-128.55
X88.57Y-116.55
X88.57Y-128.55
X91.11Y-128.55
X101.27Y-116.55
X101.27Y-128.55
X103.81Y-116.55
X103.81Y-128.55
X122.08Y-53.0
X122.08Y-65.7
X124.62Y-53.0
X124.62Y-65.7
X127.16Y-53.0
X127.16Y-65.7
T6
X79.72Y-50.98
X80.54Y-131.49
X80.54Y-134.03
X82.26Y-50.98
X84.8Y-50.98
X87.34Y-50.98
X87.34Y-71.3
X89.88Y-50.98
X89.88Y-71.3
X92.42Y-50.98
X92.42Y-71.3
X94.96Y-50.98
X97.5Y-50.98
X100.04Y-50.98
X102.58Y-50.98
X105.12Y-50.98
X111.08Y-122.55
X111.08Y-125.09
X118.37Y-121.9
X118.37Y-124.4
X118.37Y-126.9
X132.87Y-121.9
X132.87Y-126.9
X135.06Y-106.7
X135.06Y-109.24
X135.06Y-111.78
T2
G00X69.65Y-119.32
M15
G01X69.05Y-119.32
M16
G05
G00X69.65Y-128.3
M15
G01X69.05Y-128.3
M16
G05
G00X75.6Y-119.68
M15
G01X75.0Y-119.68
M16
G05
G00X75.6Y-127.94
M15
G01X75.0Y-127.94
M16
G05
T3
G00X71.76Y-107.352
M15
G01X72.36Y-107.352
M16
G05
G00X71.76Y-112.852
M15
G01X72.36Y-112.852
M16
G05
G00X74.76Y-112.852
M15
G01X75.36Y-112.852
M16
G05
G00X78.76Y-112.852
M15
G01X79.36Y-112.852
M16
G05
G00X80.26Y-108.352
M15
G01X80.86Y-108.352
M16
G05
T7
G00X125.22Y-118.8
M15
G01X126.52Y-118.8
M16
G05
G00X125.22Y-130.0
M15
G01X126.52Y-130.0
M16
G05
M30
