%TF.GenerationSoftware,KiCad,Pcbnew,10.0.2*%
%TF.CreationDate,2026-06-16T12:13:30+02:00*%
%TF.ProjectId,s3-salle-de-bain,73332d73-616c-46c6-952d-64652d626169,rev?*%
%TF.SameCoordinates,Original*%
%TF.FileFunction,Paste,Top*%
%TF.FilePolarity,Positive*%
%FSLAX46Y46*%
G04 Gerber Fmt 4.6, Leading zero omitted, Abs format (unit mm)*
G04 Created by KiCad (PCBNEW 10.0.2) date 2026-06-16 12:13:30*
%MOMM*%
%LPD*%
G01*
G04 APERTURE LIST*
G04 Aperture macros list*
%AMRoundRect*
0 Rectangle with rounded corners*
0 $1 Rounding radius*
0 $2 $3 $4 $5 $6 $7 $8 $9 X,Y pos of 4 corners*
0 Add a 4 corners polygon primitive as box body*
4,1,4,$2,$3,$4,$5,$6,$7,$8,$9,$2,$3,0*
0 Add four circle primitives for the rounded corners*
1,1,$1+$1,$2,$3*
1,1,$1+$1,$4,$5*
1,1,$1+$1,$6,$7*
1,1,$1+$1,$8,$9*
0 Add four rect primitives between the rounded corners*
20,1,$1+$1,$2,$3,$4,$5,0*
20,1,$1+$1,$4,$5,$6,$7,0*
20,1,$1+$1,$6,$7,$8,$9,0*
20,1,$1+$1,$8,$9,$2,$3,0*%
G04 Aperture macros list end*
%ADD10RoundRect,0.225000X-0.225000X-0.250000X0.225000X-0.250000X0.225000X0.250000X-0.225000X0.250000X0*%
%ADD11RoundRect,0.075000X-0.275000X0.075000X-0.275000X-0.075000X0.275000X-0.075000X0.275000X0.075000X0*%
%ADD12RoundRect,0.218750X-0.218750X-0.381250X0.218750X-0.381250X0.218750X0.381250X-0.218750X0.381250X0*%
%ADD13RoundRect,0.250000X-1.250000X-0.550000X1.250000X-0.550000X1.250000X0.550000X-1.250000X0.550000X0*%
%ADD14RoundRect,0.150000X-0.587500X-0.150000X0.587500X-0.150000X0.587500X0.150000X-0.587500X0.150000X0*%
%ADD15RoundRect,0.375000X-0.625000X-0.375000X0.625000X-0.375000X0.625000X0.375000X-0.625000X0.375000X0*%
%ADD16RoundRect,0.500000X-0.500000X-1.400000X0.500000X-1.400000X0.500000X1.400000X-0.500000X1.400000X0*%
%ADD17RoundRect,0.200000X-0.200000X-0.275000X0.200000X-0.275000X0.200000X0.275000X-0.200000X0.275000X0*%
%ADD18C,0.350000*%
%ADD19O,0.649999X0.949999*%
%ADD20O,1.100000X0.500000*%
%ADD21O,2.800000X1.500000*%
%ADD22O,1.200000X0.600000*%
G04 APERTURE END LIST*
D10*
%TO.C,C4*%
X105200000Y-107990000D03*
X106750000Y-107990000D03*
%TD*%
D11*
%TO.C,J2*%
X77210000Y-121060000D03*
X77210000Y-121560000D03*
X77210000Y-122060000D03*
X77210000Y-122560000D03*
X77210000Y-123060000D03*
X77210000Y-123560000D03*
X77210000Y-124060000D03*
X77210000Y-124560000D03*
X77210000Y-125060000D03*
X77210000Y-125560000D03*
X77210000Y-126060000D03*
X77210000Y-126560000D03*
X75510000Y-126310000D03*
X75510000Y-125810000D03*
X75510000Y-125310000D03*
X75510000Y-124810000D03*
X75510000Y-124310000D03*
X75510000Y-123810000D03*
X75510000Y-123310000D03*
X75510000Y-122810000D03*
X75510000Y-122310000D03*
X75510000Y-121810000D03*
X75510000Y-121310000D03*
X75510000Y-120810000D03*
%TD*%
D12*
%TO.C,F1*%
X134340000Y-78890000D03*
X136465000Y-78890000D03*
%TD*%
D13*
%TO.C,C5*%
X133190000Y-87150000D03*
X137590000Y-87150000D03*
%TD*%
%TO.C,C6*%
X133180000Y-95370000D03*
X137580000Y-95370000D03*
%TD*%
D14*
%TO.C,Q2*%
X109815000Y-112850000D03*
X109815000Y-114750000D03*
X111690000Y-113800000D03*
%TD*%
D10*
%TO.C,C2*%
X95200000Y-107990000D03*
X96750000Y-107990000D03*
%TD*%
%TO.C,C3*%
X100200000Y-107990000D03*
X101750000Y-107990000D03*
%TD*%
D15*
%TO.C,U5*%
X121160000Y-106260000D03*
X121160000Y-108560000D03*
D16*
X127460000Y-108560000D03*
D15*
X121160000Y-110860000D03*
%TD*%
D10*
%TO.C,C1*%
X90200000Y-107990000D03*
X91750000Y-107990000D03*
%TD*%
D17*
%TO.C,R2*%
X111930000Y-107990000D03*
X113580000Y-107990000D03*
%TD*%
D14*
%TO.C,Q1*%
X114420000Y-112710000D03*
X114420000Y-114610000D03*
X116295000Y-113660000D03*
%TD*%
D17*
%TO.C,R1*%
X110365000Y-73320000D03*
X112015000Y-73320000D03*
%TD*%
D18*
X67480000Y-100360000D03*
X70020000Y-100360000D03*
X72560000Y-100360000D03*
X75100000Y-100360000D03*
X77640000Y-100360000D03*
X80180000Y-100360000D03*
X82720000Y-100360000D03*
X85260000Y-100360000D03*
X87800000Y-100360000D03*
X90340000Y-100360000D03*
X92880000Y-100360000D03*
X95420000Y-100360000D03*
X97960000Y-100360000D03*
X100500000Y-100360000D03*
X103040000Y-100360000D03*
X105580000Y-100360000D03*
X108120000Y-100360000D03*
X110660000Y-100360000D03*
X113200000Y-100360000D03*
X115737280Y-100363680D03*
X118277280Y-100363680D03*
X120817280Y-100363680D03*
X120820000Y-77500000D03*
X118280000Y-77500000D03*
X115740000Y-77500000D03*
X113200000Y-77500000D03*
X110660000Y-77500000D03*
X108120000Y-77500000D03*
X105580000Y-77500000D03*
X103040000Y-77500000D03*
X100500000Y-77500000D03*
X97960000Y-77500000D03*
X95420000Y-77500000D03*
X92880000Y-77500000D03*
X90340000Y-77500000D03*
X87800000Y-77500000D03*
X85260000Y-77500000D03*
X82720000Y-77500000D03*
X80180000Y-77500000D03*
X77640000Y-77500000D03*
X75100000Y-77500000D03*
X72560000Y-77500000D03*
X70020000Y-77500000D03*
X67480000Y-77500000D03*
X76550000Y-120210000D03*
D19*
X76550000Y-127410000D03*
D20*
X69350000Y-119320000D03*
X75300000Y-119680000D03*
X75300000Y-127940000D03*
X69350000Y-128300000D03*
D18*
X138430000Y-139410000D03*
X107270000Y-135610000D03*
X114890000Y-135610000D03*
X73370000Y-137900000D03*
X80540000Y-134030000D03*
X80540000Y-131490000D03*
X118370000Y-121900000D03*
X118370000Y-126900000D03*
X118370000Y-124400000D03*
D21*
X125870000Y-118800000D03*
X125870000Y-130000000D03*
D18*
X132870000Y-126900000D03*
X132870000Y-121900000D03*
X122080000Y-53000000D03*
X124620000Y-53000000D03*
X127160000Y-53000000D03*
X122080000Y-65700000D03*
X124620000Y-65700000D03*
X127160000Y-65700000D03*
X73360000Y-110552500D03*
X80360000Y-110552500D03*
D22*
X72060000Y-107352500D03*
X75060000Y-112852500D03*
X72060000Y-112852500D03*
X80560000Y-108352500D03*
X79060000Y-112852500D03*
D18*
X88570000Y-128550000D03*
X88570000Y-116550000D03*
X86030000Y-116550000D03*
X86030000Y-128550000D03*
X103810000Y-116550000D03*
X101270000Y-116550000D03*
X91110000Y-128550000D03*
X101270000Y-128550000D03*
X103810000Y-128550000D03*
X79720000Y-50980000D03*
X82260000Y-50980000D03*
X84800000Y-50980000D03*
X87340000Y-50980000D03*
X89880000Y-50980000D03*
X92420000Y-50980000D03*
X94960000Y-50980000D03*
X97500000Y-50980000D03*
X100040000Y-50980000D03*
X102580000Y-50980000D03*
X105120000Y-50980000D03*
X89880000Y-71300000D03*
X87340000Y-71300000D03*
X92420000Y-71300000D03*
X111080000Y-122550000D03*
X111080000Y-125090000D03*
X73370000Y-43900000D03*
X135060000Y-106700000D03*
X135060000Y-109240000D03*
X135060000Y-111780000D03*
X138430000Y-44280000D03*
M02*
