<?xml version="1.0" encoding="UTF-8"?>
<svg xmlns="http://www.w3.org/2000/svg" width="1684" height="1190" viewBox="0 0 1684 1190" font-family="'Inter', 'Helvetica', sans-serif">
<rect width="1684" height="1190" fill="#FFFFFF"/>
<g>
<text x="842.0" y="40" text-anchor="middle" font-family="Times" font-size="26" font-weight="bold" fill="#B08D57">S3 Salle de Bain — Schema de cablage ESP32-S3</text>
<text x="842.0" y="62" text-anchor="middle" font-family="Times" font-style="italic" font-size="13" fill="#8A7D6E">23 composants — 27 nets — genere depuis s3-salle-de-bain.yaml</text>
</g>
<g id="wires">
<line x1="560.0" y1="-93.125" x2="540.0" y2="-93.125" stroke="#5B7299" stroke-width="1.6"/>
<line x1="310.0" y1="584.0" x2="330.0" y2="584.0" stroke="#5B7299" stroke-width="1.6"/>
<polyline points="540.0,-93.125 435.0,-93.125 435.0,584.0 330.0,584.0" stroke="#5B7299" stroke-width="1.6" fill="none" stroke-linejoin="round"/>
<line x1="560.0" y1="-9.375" x2="540.0" y2="-9.375" stroke="#5B7299" stroke-width="1.6"/>
<line x1="310.0" y1="736.6666666666666" x2="330.0" y2="736.6666666666666" stroke="#5B7299" stroke-width="1.6"/>
<polyline points="540.0,-9.375 435.0,-9.375 435.0,736.6666666666666 330.0,736.6666666666666" stroke="#5B7299" stroke-width="1.6" fill="none" stroke-linejoin="round"/>
<line x1="560.0" y1="74.375" x2="540.0" y2="74.375" stroke="#5B7299" stroke-width="1.6"/>
<line x1="310.0" y1="351.6666666666667" x2="330.0" y2="351.6666666666667" stroke="#5B7299" stroke-width="1.6"/>
<polyline points="540.0,74.375 435.0,74.375 435.0,351.6666666666667 330.0,351.6666666666667" stroke="#5B7299" stroke-width="1.6" fill="none" stroke-linejoin="round"/>
<line x1="560.0" y1="158.125" x2="540.0" y2="158.125" stroke="#5B7299" stroke-width="1.6"/>
<line x1="310.0" y1="375.0" x2="330.0" y2="375.0" stroke="#5B7299" stroke-width="1.6"/>
<polyline points="540.0,158.125 435.0,158.125 435.0,375.0 330.0,375.0" stroke="#5B7299" stroke-width="1.6" fill="none" stroke-linejoin="round"/>
<line x1="560.0" y1="241.875" x2="540.0" y2="241.875" stroke="#5B7299" stroke-width="1.6"/>
<line x1="310.0" y1="398.33333333333337" x2="330.0" y2="398.33333333333337" stroke="#5B7299" stroke-width="1.6"/>
<polyline points="540.0,241.875 435.0,241.875 435.0,398.33333333333337 330.0,398.33333333333337" stroke="#5B7299" stroke-width="1.6" fill="none" stroke-linejoin="round"/>
<line x1="560.0" y1="325.625" x2="540.0" y2="325.625" stroke="#5B7299" stroke-width="1.6"/>
<line x1="310.0" y1="512.0" x2="330.0" y2="512.0" stroke="#5B7299" stroke-width="1.6"/>
<polyline points="540.0,325.625 435.0,325.625 435.0,512.0 330.0,512.0" stroke="#5B7299" stroke-width="1.6" fill="none" stroke-linejoin="round"/>
<line x1="560.0" y1="409.375" x2="540.0" y2="409.375" stroke="#5B7299" stroke-width="1.6"/>
<line x1="310.0" y1="924.0" x2="330.0" y2="924.0" stroke="#5B7299" stroke-width="1.6"/>
<polyline points="540.0,409.375 435.0,409.375 435.0,924.0 330.0,924.0" stroke="#5B7299" stroke-width="1.6" fill="none" stroke-linejoin="round"/>
<line x1="560.0" y1="493.125" x2="540.0" y2="493.125" stroke="#5B7299" stroke-width="1.6"/>
<line x1="310.0" y1="560.0" x2="330.0" y2="560.0" stroke="#5B7299" stroke-width="1.6"/>
<polyline points="540.0,493.125 435.0,493.125 435.0,560.0 330.0,560.0" stroke="#5B7299" stroke-width="1.6" fill="none" stroke-linejoin="round"/>
<line x1="840.0" y1="-79.16666666666666" x2="860.0" y2="-79.16666666666666" stroke="#5B7299" stroke-width="1.6"/>
<line x1="1070.0" y1="378.0" x2="1050.0" y2="378.0" stroke="#5B7299" stroke-width="1.6"/>
<polyline points="860.0,-79.16666666666666 955.0,-79.16666666666666 955.0,378.0 1050.0,378.0" stroke="#5B7299" stroke-width="1.6" fill="none" stroke-linejoin="round"/>
<line x1="840.0" y1="32.5" x2="860.0" y2="32.5" stroke="#5B7299" stroke-width="1.6"/>
<line x1="1070.0" y1="250.0" x2="1050.0" y2="250.0" stroke="#5B7299" stroke-width="1.6"/>
<polyline points="860.0,32.5 955.0,32.5 955.0,250.0 1050.0,250.0" stroke="#5B7299" stroke-width="1.6" fill="none" stroke-linejoin="round"/>
<line x1="840.0" y1="144.16666666666669" x2="860.0" y2="144.16666666666669" stroke="#5B7299" stroke-width="1.6"/>
<line x1="1070.0" y1="314.0" x2="1050.0" y2="314.0" stroke="#5B7299" stroke-width="1.6"/>
<polyline points="860.0,144.16666666666669 955.0,144.16666666666669 955.0,314.0 1050.0,314.0" stroke="#5B7299" stroke-width="1.6" fill="none" stroke-linejoin="round"/>
<line x1="840.0" y1="255.83333333333331" x2="860.0" y2="255.83333333333331" stroke="#5B7299" stroke-width="1.6"/>
<line x1="1250.0" y1="290.0" x2="1230.0" y2="290.0" stroke="#5B7299" stroke-width="1.6"/>
<polyline points="860.0,255.83333333333331 1045.0,255.83333333333331 1045.0,290.0 1230.0,290.0" stroke="#5B7299" stroke-width="1.6" fill="none" stroke-linejoin="round"/>
<line x1="840.0" y1="367.5" x2="860.0" y2="367.5" stroke="#5B7299" stroke-width="1.6"/>
<line x1="1360.0" y1="410.0" x2="1340.0" y2="410.0" stroke="#5B7299" stroke-width="1.6"/>
<polyline points="860.0,367.5 1100.0,367.5 1100.0,410.0 1340.0,410.0" stroke="#5B7299" stroke-width="1.6" fill="none" stroke-linejoin="round"/>
<line x1="840.0" y1="479.16666666666663" x2="860.0" y2="479.16666666666663" stroke="#5B7299" stroke-width="1.6"/>
<line x1="1070.0" y1="700.0" x2="1050.0" y2="700.0" stroke="#5B7299" stroke-width="1.6"/>
<polyline points="860.0,479.16666666666663 955.0,479.16666666666663 955.0,700.0 1050.0,700.0" stroke="#5B7299" stroke-width="1.6" fill="none" stroke-linejoin="round"/>
<line x1="616.6666666666666" y1="-150.0" x2="616.6666666666666" y2="-170.0" stroke="#C0392B" stroke-width="1.6"/>
<line x1="310.0" y1="281.6666666666667" x2="330.0" y2="281.6666666666667" stroke="#C0392B" stroke-width="1.6"/>
<line x1="1070.0" y1="122.0" x2="1050.0" y2="122.0" stroke="#C0392B" stroke-width="1.6"/>
<line x1="1290.0" y1="295.7142857142857" x2="1310.0" y2="295.7142857142857" stroke="#C0392B" stroke-width="1.6"/>
<line x1="880.0" y1="100.0" x2="880.0" y2="120.0" stroke="#C0392B" stroke-width="1.6"/>
<line x1="330.0" y1="-200.0" x2="1310.0" y2="-200.0" stroke="#C0392B" stroke-width="2.4"/>
<line x1="616.6666666666666" y1="-170.0" x2="616.6666666666666" y2="-200.0" stroke="#C0392B" stroke-width="1.8"/>
<circle cx="616.6666666666666" cy="-200.0" r="2.5" fill="#C0392B"/>
<line x1="330.0" y1="281.6666666666667" x2="330.0" y2="-200.0" stroke="#C0392B" stroke-width="1.8"/>
<circle cx="330.0" cy="-200.0" r="2.5" fill="#C0392B"/>
<line x1="1050.0" y1="122.0" x2="1050.0" y2="-200.0" stroke="#C0392B" stroke-width="1.8"/>
<circle cx="1050.0" cy="-200.0" r="2.5" fill="#C0392B"/>
<line x1="1310.0" y1="295.7142857142857" x2="1310.0" y2="-200.0" stroke="#C0392B" stroke-width="1.8"/>
<circle cx="1310.0" cy="-200.0" r="2.5" fill="#C0392B"/>
<line x1="880.0" y1="120.0" x2="880.0" y2="-200.0" stroke="#C0392B" stroke-width="1.8"/>
<circle cx="880.0" cy="-200.0" r="2.5" fill="#C0392B"/>
<line x1="700.0" y1="-150.0" x2="700.0" y2="-170.0" stroke="#E67E22" stroke-width="1.6"/>
<line x1="1070.0" y1="604.0" x2="1050.0" y2="604.0" stroke="#E67E22" stroke-width="1.6"/>
<line x1="1450.0" y1="345.0" x2="1450.0" y2="325.0" stroke="#E67E22" stroke-width="1.6"/>
<line x1="675.0" y1="100.0" x2="675.0" y2="120.0" stroke="#E67E22" stroke-width="1.6"/>
<line x1="815.0" y1="70.0" x2="795.0" y2="70.0" stroke="#E67E22" stroke-width="1.6"/>
<line x1="675.0" y1="-220.0" x2="1450.0" y2="-220.0" stroke="#E67E22" stroke-width="2.4"/>
<line x1="700.0" y1="-170.0" x2="700.0" y2="-220.0" stroke="#E67E22" stroke-width="1.8"/>
<circle cx="700.0" cy="-220.0" r="2.5" fill="#E67E22"/>
<line x1="1050.0" y1="604.0" x2="1050.0" y2="-220.0" stroke="#E67E22" stroke-width="1.8"/>
<circle cx="1050.0" cy="-220.0" r="2.5" fill="#E67E22"/>
<line x1="1450.0" y1="325.0" x2="1450.0" y2="-220.0" stroke="#E67E22" stroke-width="1.8"/>
<circle cx="1450.0" cy="-220.0" r="2.5" fill="#E67E22"/>
<line x1="675.0" y1="120.0" x2="675.0" y2="-220.0" stroke="#E67E22" stroke-width="1.8"/>
<circle cx="675.0" cy="-220.0" r="2.5" fill="#E67E22"/>
<line x1="795.0" y1="70.0" x2="795.0" y2="-220.0" stroke="#E67E22" stroke-width="1.8"/>
<circle cx="795.0" cy="-220.0" r="2.5" fill="#E67E22"/>
<line x1="783.3333333333334" y1="-150.0" x2="783.3333333333334" y2="-170.0" stroke="#7D6608" stroke-width="1.6"/>
<line x1="700.0" y1="550.0" x2="700.0" y2="570.0" stroke="#1A1612" stroke-width="1.6"/>
<line x1="310.0" y1="305.0" x2="330.0" y2="305.0" stroke="#1A1612" stroke-width="1.6"/>
<line x1="310.0" y1="328.3333333333333" x2="330.0" y2="328.3333333333333" stroke="#1A1612" stroke-width="1.6"/>
<line x1="310.0" y1="536.0" x2="330.0" y2="536.0" stroke="#1A1612" stroke-width="1.6"/>
<line x1="310.0" y1="608.0" x2="330.0" y2="608.0" stroke="#1A1612" stroke-width="1.6"/>
<line x1="310.0" y1="760.0" x2="330.0" y2="760.0" stroke="#1A1612" stroke-width="1.6"/>
<line x1="310.0" y1="900.0" x2="330.0" y2="900.0" stroke="#1A1612" stroke-width="1.6"/>
<line x1="310.0" y1="948.0" x2="330.0" y2="948.0" stroke="#1A1612" stroke-width="1.6"/>
<line x1="1070.0" y1="186.0" x2="1050.0" y2="186.0" stroke="#1A1612" stroke-width="1.6"/>
<line x1="1290.0" y1="112.85714285714286" x2="1310.0" y2="112.85714285714286" stroke="#1A1612" stroke-width="1.6"/>
<line x1="1290.0" y1="158.57142857142856" x2="1310.0" y2="158.57142857142856" stroke="#1A1612" stroke-width="1.6"/>
<line x1="1290.0" y1="204.28571428571428" x2="1310.0" y2="204.28571428571428" stroke="#1A1612" stroke-width="1.6"/>
<line x1="1290.0" y1="250.0" x2="1310.0" y2="250.0" stroke="#1A1612" stroke-width="1.6"/>
<line x1="1070.0" y1="652.0" x2="1050.0" y2="652.0" stroke="#1A1612" stroke-width="1.6"/>
<line x1="1360.0" y1="227.5" x2="1340.0" y2="227.5" stroke="#1A1612" stroke-width="1.6"/>
<line x1="725.0" y1="100.0" x2="725.0" y2="120.0" stroke="#1A1612" stroke-width="1.6"/>
<line x1="945.0" y1="70.0" x2="965.0" y2="70.0" stroke="#1A1612" stroke-width="1.6"/>
<line x1="330.0" y1="978.0" x2="1340.0" y2="978.0" stroke="#1A1612" stroke-width="2.4"/>
<line x1="700.0" y1="570.0" x2="700.0" y2="978.0" stroke="#1A1612" stroke-width="1.8"/>
<circle cx="700.0" cy="978.0" r="2.5" fill="#1A1612"/>
<line x1="330.0" y1="305.0" x2="330.0" y2="978.0" stroke="#1A1612" stroke-width="1.8"/>
<circle cx="330.0" cy="978.0" r="2.5" fill="#1A1612"/>
<line x1="330.0" y1="328.3333333333333" x2="330.0" y2="978.0" stroke="#1A1612" stroke-width="1.8"/>
<circle cx="330.0" cy="978.0" r="2.5" fill="#1A1612"/>
<line x1="330.0" y1="536.0" x2="330.0" y2="978.0" stroke="#1A1612" stroke-width="1.8"/>
<circle cx="330.0" cy="978.0" r="2.5" fill="#1A1612"/>
<line x1="330.0" y1="608.0" x2="330.0" y2="978.0" stroke="#1A1612" stroke-width="1.8"/>
<circle cx="330.0" cy="978.0" r="2.5" fill="#1A1612"/>
<line x1="330.0" y1="760.0" x2="330.0" y2="978.0" stroke="#1A1612" stroke-width="1.8"/>
<circle cx="330.0" cy="978.0" r="2.5" fill="#1A1612"/>
<line x1="330.0" y1="900.0" x2="330.0" y2="978.0" stroke="#1A1612" stroke-width="1.8"/>
<circle cx="330.0" cy="978.0" r="2.5" fill="#1A1612"/>
<line x1="330.0" y1="948.0" x2="330.0" y2="978.0" stroke="#1A1612" stroke-width="1.8"/>
<circle cx="330.0" cy="978.0" r="2.5" fill="#1A1612"/>
<line x1="1050.0" y1="186.0" x2="1050.0" y2="978.0" stroke="#1A1612" stroke-width="1.8"/>
<circle cx="1050.0" cy="978.0" r="2.5" fill="#1A1612"/>
<line x1="1310.0" y1="112.85714285714286" x2="1310.0" y2="978.0" stroke="#1A1612" stroke-width="1.8"/>
<circle cx="1310.0" cy="978.0" r="2.5" fill="#1A1612"/>
<line x1="1310.0" y1="158.57142857142856" x2="1310.0" y2="978.0" stroke="#1A1612" stroke-width="1.8"/>
<circle cx="1310.0" cy="978.0" r="2.5" fill="#1A1612"/>
<line x1="1310.0" y1="204.28571428571428" x2="1310.0" y2="978.0" stroke="#1A1612" stroke-width="1.8"/>
<circle cx="1310.0" cy="978.0" r="2.5" fill="#1A1612"/>
<line x1="1310.0" y1="250.0" x2="1310.0" y2="978.0" stroke="#1A1612" stroke-width="1.8"/>
<circle cx="1310.0" cy="978.0" r="2.5" fill="#1A1612"/>
<line x1="1050.0" y1="652.0" x2="1050.0" y2="978.0" stroke="#1A1612" stroke-width="1.8"/>
<circle cx="1050.0" cy="978.0" r="2.5" fill="#1A1612"/>
<line x1="1340.0" y1="227.5" x2="1340.0" y2="978.0" stroke="#1A1612" stroke-width="1.8"/>
<circle cx="1340.0" cy="978.0" r="2.5" fill="#1A1612"/>
<line x1="725.0" y1="120.0" x2="725.0" y2="978.0" stroke="#1A1612" stroke-width="1.8"/>
<circle cx="725.0" cy="978.0" r="2.5" fill="#1A1612"/>
<line x1="965.0" y1="70.0" x2="965.0" y2="978.0" stroke="#1A1612" stroke-width="1.8"/>
<circle cx="965.0" cy="978.0" r="2.5" fill="#1A1612"/>
<line x1="310.0" y1="852.0" x2="330.0" y2="852.0" stroke="#7E5109" stroke-width="1.6"/>
<line x1="1290.0" y1="341.42857142857144" x2="1310.0" y2="341.42857142857144" stroke="#7E5109" stroke-width="1.6"/>
<line x1="1070.0" y1="748.0" x2="1050.0" y2="748.0" stroke="#7E5109" stroke-width="1.6"/>
<polyline points="330.0,852.0 820.0,852.0 820.0,341.42857142857144 1310.0,341.42857142857144" stroke="#7E5109" stroke-width="1.6" fill="none" stroke-linejoin="round"/>
<polyline points="330.0,852.0 690.0,852.0 690.0,748.0 1050.0,748.0" stroke="#7E5109" stroke-width="1.6" fill="none" stroke-linejoin="round"/>
<line x1="310.0" y1="876.0" x2="330.0" y2="876.0" stroke="#7E5109" stroke-width="1.6"/>
<line x1="1290.0" y1="387.14285714285717" x2="1310.0" y2="387.14285714285717" stroke="#7E5109" stroke-width="1.6"/>
<line x1="1070.0" y1="796.0" x2="1050.0" y2="796.0" stroke="#7E5109" stroke-width="1.6"/>
<polyline points="330.0,876.0 820.0,876.0 820.0,387.14285714285717 1310.0,387.14285714285717" stroke="#7E5109" stroke-width="1.6" fill="none" stroke-linejoin="round"/>
<polyline points="330.0,876.0 690.0,876.0 690.0,796.0 1050.0,796.0" stroke="#7E5109" stroke-width="1.6" fill="none" stroke-linejoin="round"/>
<line x1="1290.0" y1="610.0" x2="1310.0" y2="610.0" stroke="#7E5109" stroke-width="1.6"/>
<line x1="1360.0" y1="705.0" x2="1340.0" y2="705.0" stroke="#7E5109" stroke-width="1.6"/>
<polyline points="1310.0,610.0 1325.0,610.0 1325.0,705.0 1340.0,705.0" stroke="#7E5109" stroke-width="1.6" fill="none" stroke-linejoin="round"/>
<line x1="1290.0" y1="670.0" x2="1310.0" y2="670.0" stroke="#7E5109" stroke-width="1.6"/>
<line x1="1360.0" y1="735.0" x2="1340.0" y2="735.0" stroke="#7E5109" stroke-width="1.6"/>
<polyline points="1310.0,670.0 1325.0,670.0 1325.0,735.0 1340.0,735.0" stroke="#7E5109" stroke-width="1.6" fill="none" stroke-linejoin="round"/>
<line x1="1290.0" y1="730.0" x2="1310.0" y2="730.0" stroke="#7E5109" stroke-width="1.6"/>
<line x1="1360.0" y1="835.0" x2="1340.0" y2="835.0" stroke="#7E5109" stroke-width="1.6"/>
<polyline points="1310.0,730.0 1325.0,730.0 1325.0,835.0 1340.0,835.0" stroke="#7E5109" stroke-width="1.6" fill="none" stroke-linejoin="round"/>
<line x1="1290.0" y1="790.0" x2="1310.0" y2="790.0" stroke="#7E5109" stroke-width="1.6"/>
<line x1="1360.0" y1="865.0" x2="1340.0" y2="865.0" stroke="#7E5109" stroke-width="1.6"/>
<polyline points="1310.0,790.0 1325.0,790.0 1325.0,865.0 1340.0,865.0" stroke="#7E5109" stroke-width="1.6" fill="none" stroke-linejoin="round"/>
<line x1="1360.0" y1="202.5" x2="1340.0" y2="202.5" stroke="#D68910" stroke-width="1.6"/>
<line x1="1540.0" y1="410.0" x2="1560.0" y2="410.0" stroke="#D68910" stroke-width="1.6"/>
<polyline points="1340.0,202.5 1560.0,202.5 1560.0,410.0" stroke="#D68910" stroke-width="2.0" fill="none" stroke-linejoin="round"/>
<line x1="1360.0" y1="252.5" x2="1340.0" y2="252.5" stroke="#5B7299" stroke-width="1.6"/>
<line x1="1330.0" y1="290.0" x2="1350.0" y2="290.0" stroke="#5B7299" stroke-width="1.6"/>
<polyline points="1340.0,252.5 1345.0,252.5 1345.0,290.0 1350.0,290.0" stroke="#5B7299" stroke-width="1.6" fill="none" stroke-linejoin="round"/>
<line x1="1360.0" y1="277.5" x2="1340.0" y2="277.5" stroke="#5B7299" stroke-width="1.6"/>
</g>
<g id="components">
<rect x="560.0" y="-150.0" width="280" height="700" fill="white" stroke="#1A1612" stroke-width="1.6" rx="4"/>
<text x="700" y="-132.0" text-anchor="middle" font-size="14" font-weight="bold" fill="#B08D57">U1</text>
<text x="700" y="-116.0" text-anchor="middle" font-size="10" fill="#4A4036">ESP32-S3 DevKitC-1</text>
<circle cx="560.0" cy="-93.125" r="3" fill="#1A1612"/>
<text x="568.0" y="-89.125" text-anchor="start" font-size="9" fill="#1A1612" font-family="monospace">GPIO1</text>
<circle cx="560.0" cy="-9.375" r="3" fill="#1A1612"/>
<text x="568.0" y="-5.375" text-anchor="start" font-size="9" fill="#1A1612" font-family="monospace">GPIO2</text>
<circle cx="560.0" cy="74.375" r="3" fill="#1A1612"/>
<text x="568.0" y="78.375" text-anchor="start" font-size="9" fill="#1A1612" font-family="monospace">GPIO4</text>
<circle cx="560.0" cy="158.125" r="3" fill="#1A1612"/>
<text x="568.0" y="162.125" text-anchor="start" font-size="9" fill="#1A1612" font-family="monospace">GPIO5</text>
<circle cx="560.0" cy="241.875" r="3" fill="#1A1612"/>
<text x="568.0" y="245.875" text-anchor="start" font-size="9" fill="#1A1612" font-family="monospace">GPIO11</text>
<circle cx="560.0" cy="325.625" r="3" fill="#1A1612"/>
<text x="568.0" y="329.625" text-anchor="start" font-size="9" fill="#1A1612" font-family="monospace">GPIO16</text>
<circle cx="560.0" cy="409.375" r="3" fill="#1A1612"/>
<text x="568.0" y="413.375" text-anchor="start" font-size="9" fill="#1A1612" font-family="monospace">GPIO17</text>
<circle cx="560.0" cy="493.125" r="3" fill="#1A1612"/>
<text x="568.0" y="497.125" text-anchor="start" font-size="9" fill="#1A1612" font-family="monospace">GPIO18</text>
<circle cx="840.0" cy="-79.16666666666666" r="3" fill="#1A1612"/>
<text x="832.0" y="-75.16666666666666" text-anchor="end" font-size="9" fill="#1A1612" font-family="monospace">GPIO7</text>
<circle cx="840.0" cy="32.5" r="3" fill="#1A1612"/>
<text x="832.0" y="36.5" text-anchor="end" font-size="9" fill="#1A1612" font-family="monospace">GPIO8</text>
<circle cx="840.0" cy="144.16666666666669" r="3" fill="#1A1612"/>
<text x="832.0" y="148.16666666666669" text-anchor="end" font-size="9" fill="#1A1612" font-family="monospace">GPIO10</text>
<circle cx="840.0" cy="255.83333333333331" r="3" fill="#1A1612"/>
<text x="832.0" y="259.8333333333333" text-anchor="end" font-size="9" fill="#1A1612" font-family="monospace">GPIO21</text>
<circle cx="840.0" cy="367.5" r="3" fill="#1A1612"/>
<text x="832.0" y="371.5" text-anchor="end" font-size="9" fill="#1A1612" font-family="monospace">GPIO9</text>
<circle cx="840.0" cy="479.16666666666663" r="3" fill="#1A1612"/>
<text x="832.0" y="483.16666666666663" text-anchor="end" font-size="9" fill="#1A1612" font-family="monospace">GPIO47</text>
<circle cx="616.6666666666666" cy="-150.0" r="3" fill="#1A1612"/>
<text x="616.6666666666666" y="-136.0" text-anchor="middle" font-size="9" fill="#1A1612" font-family="monospace">3V3</text>
<circle cx="700.0" cy="-150.0" r="3" fill="#1A1612"/>
<text x="700.0" y="-136.0" text-anchor="middle" font-size="9" fill="#1A1612" font-family="monospace">5V</text>
<circle cx="783.3333333333334" cy="-150.0" r="3" fill="#1A1612"/>
<text x="783.3333333333334" y="-136.0" text-anchor="middle" font-size="9" fill="#1A1612" font-family="monospace">EN</text>
<circle cx="700.0" cy="550.0" r="3" fill="#1A1612"/>
<text x="700.0" y="544.0" text-anchor="middle" font-size="9" fill="#1A1612" font-family="monospace">GND</text>
<rect x="130.0" y="255.0" width="180" height="170" fill="white" stroke="#1A1612" stroke-width="1.6" rx="4"/>
<text x="220" y="273.0" text-anchor="middle" font-size="14" font-weight="bold" fill="#B08D57">U4</text>
<text x="220" y="289.0" text-anchor="middle" font-size="10" fill="#4A4036">INMP441 / ICS-43434</text>
<circle cx="310.0" cy="281.6666666666667" r="3" fill="#1A1612"/>
<text x="302.0" y="285.6666666666667" text-anchor="end" font-size="9" fill="#1A1612" font-family="monospace">VDD</text>
<circle cx="310.0" cy="305.0" r="3" fill="#1A1612"/>
<text x="302.0" y="309.0" text-anchor="end" font-size="9" fill="#1A1612" font-family="monospace">GND</text>
<circle cx="310.0" cy="328.3333333333333" r="3" fill="#1A1612"/>
<text x="302.0" y="332.3333333333333" text-anchor="end" font-size="9" fill="#1A1612" font-family="monospace">L/R</text>
<circle cx="310.0" cy="351.6666666666667" r="3" fill="#1A1612"/>
<text x="302.0" y="355.6666666666667" text-anchor="end" font-size="9" fill="#1A1612" font-family="monospace">WS</text>
<circle cx="310.0" cy="375.0" r="3" fill="#1A1612"/>
<text x="302.0" y="379.0" text-anchor="end" font-size="9" fill="#1A1612" font-family="monospace">SCK</text>
<circle cx="310.0" cy="398.33333333333337" r="3" fill="#1A1612"/>
<text x="302.0" y="402.33333333333337" text-anchor="end" font-size="9" fill="#1A1612" font-family="monospace">SD</text>
<rect x="130.0" y="485.0" width="180" height="150" fill="white" stroke="#1A1612" stroke-width="1.6" rx="4"/>
<text x="220" y="503.0" text-anchor="middle" font-size="14" font-weight="bold" fill="#B08D57">SW1</text>
<text x="220" y="519.0" text-anchor="middle" font-size="10" fill="#4A4036">Encodeur EC11</text>
<circle cx="310.0" cy="512.0" r="3" fill="#1A1612"/>
<text x="302.0" y="516.0" text-anchor="end" font-size="9" fill="#1A1612" font-family="monospace">A</text>
<circle cx="310.0" cy="536.0" r="3" fill="#1A1612"/>
<text x="302.0" y="540.0" text-anchor="end" font-size="9" fill="#1A1612" font-family="monospace">C</text>
<circle cx="310.0" cy="560.0" r="3" fill="#1A1612"/>
<text x="302.0" y="564.0" text-anchor="end" font-size="9" fill="#1A1612" font-family="monospace">B</text>
<circle cx="310.0" cy="584.0" r="3" fill="#1A1612"/>
<text x="302.0" y="588.0" text-anchor="end" font-size="9" fill="#1A1612" font-family="monospace">BTN_A</text>
<circle cx="310.0" cy="608.0" r="3" fill="#1A1612"/>
<text x="302.0" y="612.0" text-anchor="end" font-size="9" fill="#1A1612" font-family="monospace">BTN_B</text>
<rect x="130.0" y="710.0" width="180" height="100" fill="white" stroke="#1A1612" stroke-width="1.6" rx="4"/>
<text x="220" y="728.0" text-anchor="middle" font-size="14" font-weight="bold" fill="#B08D57">SW2</text>
<text x="220" y="744.0" text-anchor="middle" font-size="10" fill="#4A4036">Switch mute SPDT</text>
<circle cx="310.0" cy="736.6666666666666" r="3" fill="#1A1612"/>
<text x="302.0" y="740.6666666666666" text-anchor="end" font-size="9" fill="#1A1612" font-family="monospace">COM</text>
<circle cx="310.0" cy="760.0" r="3" fill="#1A1612"/>
<text x="302.0" y="764.0" text-anchor="end" font-size="9" fill="#1A1612" font-family="monospace">NO</text>
<circle cx="310.0" cy="783.3333333333334" r="3" fill="#1A1612"/>
<text x="302.0" y="787.3333333333334" text-anchor="end" font-size="9" fill="#1A1612" font-family="monospace">NC</text>
<rect x="130.0" y="825.0" width="180" height="150" fill="white" stroke="#1A1612" stroke-width="1.6" rx="4"/>
<text x="220" y="843.0" text-anchor="middle" font-size="14" font-weight="bold" fill="#B08D57">J1</text>
<text x="220" y="859.0" text-anchor="middle" font-size="10" fill="#4A4036">Jack 3.5mm (PJ320E)</text>
<circle cx="310.0" cy="852.0" r="3" fill="#1A1612"/>
<text x="302.0" y="856.0" text-anchor="end" font-size="9" fill="#1A1612" font-family="monospace">Tip</text>
<circle cx="310.0" cy="876.0" r="3" fill="#1A1612"/>
<text x="302.0" y="880.0" text-anchor="end" font-size="9" fill="#1A1612" font-family="monospace">Ring</text>
<circle cx="310.0" cy="900.0" r="3" fill="#1A1612"/>
<text x="302.0" y="904.0" text-anchor="end" font-size="9" fill="#1A1612" font-family="monospace">Sleeve</text>
<circle cx="310.0" cy="924.0" r="3" fill="#1A1612"/>
<text x="302.0" y="928.0" text-anchor="end" font-size="9" fill="#1A1612" font-family="monospace">Det</text>
<circle cx="310.0" cy="948.0" r="3" fill="#1A1612"/>
<text x="302.0" y="952.0" text-anchor="end" font-size="9" fill="#1A1612" font-family="monospace">DetGnd</text>
<rect x="1070.0" y="75.0" width="220" height="350" fill="white" stroke="#1A1612" stroke-width="1.6" rx="4"/>
<text x="1180" y="93.0" text-anchor="middle" font-size="14" font-weight="bold" fill="#B08D57">U2</text>
<text x="1180" y="109.0" text-anchor="middle" font-size="10" fill="#4A4036">PCM5102 DAC</text>
<circle cx="1070.0" cy="122.0" r="3" fill="#1A1612"/>
<text x="1078.0" y="126.0" text-anchor="start" font-size="9" fill="#1A1612" font-family="monospace">VIN</text>
<circle cx="1070.0" cy="186.0" r="3" fill="#1A1612"/>
<text x="1078.0" y="190.0" text-anchor="start" font-size="9" fill="#1A1612" font-family="monospace">GND</text>
<circle cx="1070.0" cy="250.0" r="3" fill="#1A1612"/>
<text x="1078.0" y="254.0" text-anchor="start" font-size="9" fill="#1A1612" font-family="monospace">BCK</text>
<circle cx="1070.0" cy="314.0" r="3" fill="#1A1612"/>
<text x="1078.0" y="318.0" text-anchor="start" font-size="9" fill="#1A1612" font-family="monospace">DIN</text>
<circle cx="1070.0" cy="378.0" r="3" fill="#1A1612"/>
<text x="1078.0" y="382.0" text-anchor="start" font-size="9" fill="#1A1612" font-family="monospace">LRCK</text>
<circle cx="1290.0" cy="112.85714285714286" r="3" fill="#1A1612"/>
<text x="1282.0" y="116.85714285714286" text-anchor="end" font-size="9" fill="#1A1612" font-family="monospace">SCK</text>
<circle cx="1290.0" cy="158.57142857142856" r="3" fill="#1A1612"/>
<text x="1282.0" y="162.57142857142856" text-anchor="end" font-size="9" fill="#1A1612" font-family="monospace">FMT</text>
<circle cx="1290.0" cy="204.28571428571428" r="3" fill="#1A1612"/>
<text x="1282.0" y="208.28571428571428" text-anchor="end" font-size="9" fill="#1A1612" font-family="monospace">FLT</text>
<circle cx="1290.0" cy="250.0" r="3" fill="#1A1612"/>
<text x="1282.0" y="254.0" text-anchor="end" font-size="9" fill="#1A1612" font-family="monospace">DEMP</text>
<circle cx="1290.0" cy="295.7142857142857" r="3" fill="#1A1612"/>
<text x="1282.0" y="299.7142857142857" text-anchor="end" font-size="9" fill="#1A1612" font-family="monospace">XSMT</text>
<circle cx="1290.0" cy="341.42857142857144" r="3" fill="#1A1612"/>
<text x="1282.0" y="345.42857142857144" text-anchor="end" font-size="9" fill="#1A1612" font-family="monospace">LOUT</text>
<circle cx="1290.0" cy="387.14285714285717" r="3" fill="#1A1612"/>
<text x="1282.0" y="391.14285714285717" text-anchor="end" font-size="9" fill="#1A1612" font-family="monospace">ROUT</text>
<rect x="1070.0" y="565.0" width="220" height="270" fill="white" stroke="#1A1612" stroke-width="1.6" rx="4"/>
<text x="1180" y="583.0" text-anchor="middle" font-size="14" font-weight="bold" fill="#B08D57">U3</text>
<text x="1180" y="599.0" text-anchor="middle" font-size="10" fill="#4A4036">PAM8403 ampli class-D</text>
<circle cx="1070.0" cy="604.0" r="3" fill="#1A1612"/>
<text x="1078.0" y="608.0" text-anchor="start" font-size="9" fill="#1A1612" font-family="monospace">VCC</text>
<circle cx="1070.0" cy="652.0" r="3" fill="#1A1612"/>
<text x="1078.0" y="656.0" text-anchor="start" font-size="9" fill="#1A1612" font-family="monospace">GND</text>
<circle cx="1070.0" cy="700.0" r="3" fill="#1A1612"/>
<text x="1078.0" y="704.0" text-anchor="start" font-size="9" fill="#1A1612" font-family="monospace">SHDN</text>
<circle cx="1070.0" cy="748.0" r="3" fill="#1A1612"/>
<text x="1078.0" y="752.0" text-anchor="start" font-size="9" fill="#1A1612" font-family="monospace">LIN</text>
<circle cx="1070.0" cy="796.0" r="3" fill="#1A1612"/>
<text x="1078.0" y="800.0" text-anchor="start" font-size="9" fill="#1A1612" font-family="monospace">RIN</text>
<circle cx="1290.0" cy="610.0" r="3" fill="#1A1612"/>
<text x="1282.0" y="614.0" text-anchor="end" font-size="9" fill="#1A1612" font-family="monospace">LOUT+</text>
<circle cx="1290.0" cy="670.0" r="3" fill="#1A1612"/>
<text x="1282.0" y="674.0" text-anchor="end" font-size="9" fill="#1A1612" font-family="monospace">LOUT-</text>
<circle cx="1290.0" cy="730.0" r="3" fill="#1A1612"/>
<text x="1282.0" y="734.0" text-anchor="end" font-size="9" fill="#1A1612" font-family="monospace">ROUT+</text>
<circle cx="1290.0" cy="790.0" r="3" fill="#1A1612"/>
<text x="1282.0" y="794.0" text-anchor="end" font-size="9" fill="#1A1612" font-family="monospace">ROUT-</text>
<rect x="1360.0" y="175.0" width="180" height="130" fill="white" stroke="#1A1612" stroke-width="1.6" rx="4"/>
<text x="1450" y="193.0" text-anchor="middle" font-size="14" font-weight="bold" fill="#B08D57">DS1</text>
<text x="1450" y="209.0" text-anchor="middle" font-size="10" fill="#4A4036">WS2812 Ring 12 LEDs</text>
<circle cx="1360.0" cy="202.5" r="3" fill="#1A1612"/>
<text x="1368.0" y="206.5" text-anchor="start" font-size="9" fill="#1A1612" font-family="monospace">VCC</text>
<circle cx="1360.0" cy="227.5" r="3" fill="#1A1612"/>
<text x="1368.0" y="231.5" text-anchor="start" font-size="9" fill="#1A1612" font-family="monospace">GND</text>
<circle cx="1360.0" cy="252.5" r="3" fill="#1A1612"/>
<text x="1368.0" y="256.5" text-anchor="start" font-size="9" fill="#1A1612" font-family="monospace">DIN</text>
<circle cx="1360.0" cy="277.5" r="3" fill="#1A1612"/>
<text x="1368.0" y="281.5" text-anchor="start" font-size="9" fill="#1A1612" font-family="monospace">DOUT</text>
<rect x="1250.0" y="265.0" width="80" height="50" fill="white" stroke="#1A1612" stroke-width="1.6" rx="4"/>
<text x="1290" y="283.0" text-anchor="middle" font-size="14" font-weight="bold" fill="#B08D57">R2</text>
<text x="1290" y="299.0" text-anchor="middle" font-size="10" fill="#4A4036">330 Ω</text>
<circle cx="1250.0" cy="290.0" r="3" fill="#1A1612"/>
<text x="1258.0" y="294.0" text-anchor="start" font-size="9" fill="#1A1612" font-family="monospace">1</text>
<circle cx="1330.0" cy="290.0" r="3" fill="#1A1612"/>
<text x="1322.0" y="294.0" text-anchor="end" font-size="9" fill="#1A1612" font-family="monospace">2</text>
<rect x="1360.0" y="345.0" width="180" height="130" fill="white" stroke="#1A1612" stroke-width="1.6" rx="4"/>
<text x="1450" y="363.0" text-anchor="middle" font-size="14" font-weight="bold" fill="#B08D57">Q1</text>
<text x="1450" y="379.0" text-anchor="middle" font-size="10" fill="#4A4036">P-MOS AO3401</text>
<circle cx="1360.0" cy="410.0" r="3" fill="#1A1612"/>
<text x="1368.0" y="414.0" text-anchor="start" font-size="9" fill="#1A1612" font-family="monospace">G</text>
<circle cx="1540.0" cy="410.0" r="3" fill="#1A1612"/>
<text x="1532.0" y="414.0" text-anchor="end" font-size="9" fill="#1A1612" font-family="monospace">D</text>
<circle cx="1450.0" cy="345.0" r="3" fill="#1A1612"/>
<text x="1450.0" y="359.0" text-anchor="middle" font-size="9" fill="#1A1612" font-family="monospace">S</text>
<rect x="1360.0" y="675.0" width="180" height="90" fill="white" stroke="#1A1612" stroke-width="1.6" rx="4"/>
<text x="1450" y="693.0" text-anchor="middle" font-size="14" font-weight="bold" fill="#B08D57">HP_L</text>
<text x="1450" y="709.0" text-anchor="middle" font-size="10" fill="#4A4036">HP gauche 40mm 4Ω 3W</text>
<circle cx="1360.0" cy="705.0" r="3" fill="#1A1612"/>
<text x="1368.0" y="709.0" text-anchor="start" font-size="9" fill="#1A1612" font-family="monospace">+</text>
<circle cx="1360.0" cy="735.0" r="3" fill="#1A1612"/>
<text x="1368.0" y="739.0" text-anchor="start" font-size="9" fill="#1A1612" font-family="monospace">-</text>
<rect x="1360.0" y="805.0" width="180" height="90" fill="white" stroke="#1A1612" stroke-width="1.6" rx="4"/>
<text x="1450" y="823.0" text-anchor="middle" font-size="14" font-weight="bold" fill="#B08D57">HP_R</text>
<text x="1450" y="839.0" text-anchor="middle" font-size="10" fill="#4A4036">HP droit 40mm 4Ω 3W</text>
<circle cx="1360.0" cy="835.0" r="3" fill="#1A1612"/>
<text x="1368.0" y="839.0" text-anchor="start" font-size="9" fill="#1A1612" font-family="monospace">+</text>
<circle cx="1360.0" cy="865.0" r="3" fill="#1A1612"/>
<text x="1368.0" y="869.0" text-anchor="start" font-size="9" fill="#1A1612" font-family="monospace">-</text>
<rect x="635.0" y="40.0" width="130" height="60" fill="white" stroke="#1A1612" stroke-width="1.6" rx="4"/>
<text x="700" y="58.0" text-anchor="middle" font-size="14" font-weight="bold" fill="#B08D57">J2</text>
<text x="700" y="74.0" text-anchor="middle" font-size="10" fill="#4A4036">USB-C 5V</text>
<circle cx="675.0" cy="100.0" r="3" fill="#1A1612"/>
<text x="675.0" y="94.0" text-anchor="middle" font-size="9" fill="#1A1612" font-family="monospace">VBUS</text>
<circle cx="725.0" cy="100.0" r="3" fill="#1A1612"/>
<text x="725.0" y="94.0" text-anchor="middle" font-size="9" fill="#1A1612" font-family="monospace">GND</text>
<rect x="815.0" y="40.0" width="130" height="60" fill="white" stroke="#1A1612" stroke-width="1.6" rx="4"/>
<text x="880" y="58.0" text-anchor="middle" font-size="14" font-weight="bold" fill="#B08D57">U5</text>
<text x="880" y="74.0" text-anchor="middle" font-size="10" fill="#4A4036">AMS1117-3.3 LDO</text>
<circle cx="815.0" cy="70.0" r="3" fill="#1A1612"/>
<text x="823.0" y="74.0" text-anchor="start" font-size="9" fill="#1A1612" font-family="monospace">VIN</text>
<circle cx="945.0" cy="70.0" r="3" fill="#1A1612"/>
<text x="937.0" y="74.0" text-anchor="end" font-size="9" fill="#1A1612" font-family="monospace">GND</text>
<circle cx="880.0" cy="100.0" r="3" fill="#1A1612"/>
<text x="880.0" y="94.0" text-anchor="middle" font-size="9" fill="#1A1612" font-family="monospace">VOUT</text>
</g>
<g id="netlabels">
<text x="536.0" y="-97.125" font-size="8.5" font-style="italic" fill="#5B7299" text-anchor="end" font-family="monospace">BTN_CENTER</text>
<text x="536.0" y="-13.375" font-size="8.5" font-style="italic" fill="#5B7299" text-anchor="end" font-family="monospace">MUTE_SW</text>
<text x="536.0" y="70.375" font-size="8.5" font-style="italic" fill="#5B7299" text-anchor="end" font-family="monospace">MIC_LRCLK</text>
<text x="536.0" y="154.125" font-size="8.5" font-style="italic" fill="#5B7299" text-anchor="end" font-family="monospace">MIC_BCLK</text>
<text x="536.0" y="237.875" font-size="8.5" font-style="italic" fill="#5B7299" text-anchor="end" font-family="monospace">MIC_DIN</text>
<text x="536.0" y="321.625" font-size="8.5" font-style="italic" fill="#5B7299" text-anchor="end" font-family="monospace">ENC_A</text>
<text x="536.0" y="405.375" font-size="8.5" font-style="italic" fill="#5B7299" text-anchor="end" font-family="monospace">JACK_DET</text>
<text x="536.0" y="489.125" font-size="8.5" font-style="italic" fill="#5B7299" text-anchor="end" font-family="monospace">ENC_B</text>
<text x="864.0" y="-83.16666666666666" font-size="8.5" font-style="italic" fill="#5B7299" text-anchor="start" font-family="monospace">DAC_LRCK</text>
<text x="864.0" y="28.5" font-size="8.5" font-style="italic" fill="#5B7299" text-anchor="start" font-family="monospace">DAC_BCK</text>
<text x="864.0" y="140.16666666666669" font-size="8.5" font-style="italic" fill="#5B7299" text-anchor="start" font-family="monospace">DAC_DIN</text>
<text x="864.0" y="251.83333333333331" font-size="8.5" font-style="italic" fill="#5B7299" text-anchor="start" font-family="monospace">LED_DIN_RAW</text>
<text x="864.0" y="363.5" font-size="8.5" font-style="italic" fill="#5B7299" text-anchor="start" font-family="monospace">LED_PWR_EN</text>
<text x="864.0" y="475.16666666666663" font-size="8.5" font-style="italic" fill="#5B7299" text-anchor="start" font-family="monospace">AMP_EN</text>
<text x="305.0" y="-165.0" font-size="11" font-weight="bold" fill="#C0392B" text-anchor="end">+3V3</text>
<text x="670.0" y="-185.0" font-size="11" font-weight="bold" fill="#E67E22" text-anchor="end">+5V</text>
<text x="783.3333333333334" y="-150.0" font-size="8.5" font-style="italic" fill="#7D6608" text-anchor="middle" font-family="monospace">EN</text>
<text x="305.0" y="973.0" font-size="11" font-weight="bold" fill="#1A1612" text-anchor="end">GND</text>
<text x="334.0" y="848.0" font-size="8.5" font-style="italic" fill="#7E5109" text-anchor="start" font-family="monospace">AUDIO_L</text>
<text x="334.0" y="872.0" font-size="8.5" font-style="italic" fill="#7E5109" text-anchor="start" font-family="monospace">AUDIO_R</text>
<text x="1314.0" y="606.0" font-size="8.5" font-style="italic" fill="#7E5109" text-anchor="start" font-family="monospace">SPK_L+</text>
<text x="1314.0" y="666.0" font-size="8.5" font-style="italic" fill="#7E5109" text-anchor="start" font-family="monospace">SPK_L-</text>
<text x="1314.0" y="726.0" font-size="8.5" font-style="italic" fill="#7E5109" text-anchor="start" font-family="monospace">SPK_R+</text>
<text x="1314.0" y="786.0" font-size="8.5" font-style="italic" fill="#7E5109" text-anchor="start" font-family="monospace">SPK_R-</text>
<text x="1355.0" y="306.25" font-size="11" font-weight="bold" fill="#D68910" text-anchor="end">+5V_LED</text>
<text x="1336.0" y="248.5" font-size="8.5" font-style="italic" fill="#5B7299" text-anchor="end" font-family="monospace">LED_DIN</text>
<text x="1336.0" y="273.5" font-size="8.5" font-style="italic" fill="#5B7299" text-anchor="end" font-family="monospace">LED_DOUT</text>
</g>
<g id="legend">
<text x="40" y="1120" font-size="11" font-weight="bold" fill="#B08D57">Legende</text>
<line x1="40" y1="1140" x2="65" y2="1140" stroke="#1A1612" stroke-width="2.4"/>
<text x="70" y="1143" font-size="10" fill="#4A4036">GND</text>
<line x1="240" y1="1140" x2="265" y2="1140" stroke="#C0392B" stroke-width="2.4"/>
<text x="270" y="1143" font-size="10" fill="#4A4036">+3V3</text>
<line x1="440" y1="1140" x2="465" y2="1140" stroke="#E67E22" stroke-width="2.4"/>
<text x="470" y="1143" font-size="10" fill="#4A4036">+5V</text>
<line x1="40" y1="1160" x2="65" y2="1160" stroke="#D68910" stroke-width="2.4"/>
<text x="70" y="1163" font-size="10" fill="#4A4036">+5V_LED</text>
<line x1="240" y1="1160" x2="265" y2="1160" stroke="#7E5109" stroke-width="2.4"/>
<text x="270" y="1163" font-size="10" fill="#4A4036">Audio</text>
<line x1="440" y1="1160" x2="465" y2="1160" stroke="#5B7299" stroke-width="2.4"/>
<text x="470" y="1163" font-size="10" fill="#4A4036">Signaux</text>
</g>
<text x="1644" y="1160" text-anchor="end" font-size="9" fill="#8A7D6E" font-style="italic">github.com/hanafi09/s3-salle-de-bain · Hanafi BENMESBAH · domokami</text>
</svg>